<svg width="148" height="26" viewBox="0 0 148 26" fill="none" xmlns="http://www.w3.org/2000/svg">
<path d="M41.9948 6.1568V17.4625C41.9948 18.745 41.9517 19.6465 41.87 20.1631C41.7838 20.6834 41.5387 21.2176 41.1289 21.7631C40.719 22.3116 40.1772 22.7251 39.507 23.0065C38.8336 23.288 38.0427 23.4303 37.1305 23.4303C36.1227 23.4303 35.232 23.2629 34.4617 22.928C33.6887 22.5931 33.1119 22.1585 32.7303 21.6239C32.346 21.0861 32.1216 20.5196 32.0502 19.9243C31.9824 19.3295 31.9469 18.0753 31.9469 16.1688V6.1568H36.3507V18.8411C36.3507 19.5787 36.3898 20.0527 36.4683 20.2556C36.5469 20.4626 36.7072 20.5658 36.946 20.5658C37.2167 20.5658 37.3944 20.4518 37.4725 20.2273C37.5515 19.9993 37.5902 19.4646 37.5902 18.6238V6.1568H41.9948ZM51.0551 6.1568V9.5343L47.7947 19.6891H51.0551V23.0671H42.9532V20.6156L46.3416 9.5343H43.3591V6.1568H51.0551V6.1568ZM95.0803 12.3993H90.6765V10.8636C90.6765 9.8944 90.637 9.2888 90.5553 9.0464C90.4736 8.8004 90.2774 8.6792 89.9713 8.6792C89.7073 8.6792 89.5255 8.7824 89.429 8.993C89.3334 9.1995 89.2872 9.7377 89.2872 10.5996V18.7091C89.2872 19.4646 89.3334 19.967 89.429 20.2058C89.5255 20.4446 89.7141 20.5658 89.9991 20.5658C90.3129 20.5658 90.523 20.4302 90.637 20.1596C90.7479 19.8889 90.8049 19.3578 90.8049 18.5704V16.5678H89.9497V14.0023H95.0803V23.0671H92.3119L91.9056 21.8555C91.6062 22.3794 91.2287 22.7713 90.7757 23.0348C90.3196 23.2988 89.7819 23.4303 89.1655 23.4303C88.428 23.4303 87.7402 23.2521 87.0951 22.8925C86.4541 22.5325 85.9657 22.0908 85.6344 21.5597C85.2995 21.0327 85.0935 20.4765 85.0073 19.896C84.9251 19.3152 84.8825 18.442 84.8825 17.2807V12.2565C84.8825 10.6427 84.9682 9.4706 85.1429 8.7398C85.3179 8.0058 85.8162 7.336 86.6391 6.7269C87.4628 6.1177 88.5276 5.8147 89.8357 5.8147C91.1218 5.8147 92.1871 6.0782 93.0346 6.6093C93.8835 7.1403 94.4393 7.7674 94.6956 8.4942C94.9524 9.2246 95.0803 10.2791 95.0803 11.6689V12.3993V12.3993ZM96.7974 6.1568H99.9078C101.982 6.1568 103.385 6.23491 104.119 6.39561C104.854 6.55581 105.452 6.9657 105.916 7.6247C106.378 8.2805 106.611 9.3314 106.611 10.7711C106.611 12.0855 106.446 12.9694 106.119 13.4219C105.794 13.8744 105.15 14.1451 104.187 14.234C105.057 14.4517 105.644 14.7403 105.944 15.1035C106.244 15.4635 106.429 15.7984 106.5 16.101C106.575 16.404 106.611 17.2376 106.611 18.6023V23.0671H102.527V17.441C102.527 16.536 102.455 15.9766 102.313 15.7594C102.174 15.5416 101.804 15.4348 101.201 15.4348V23.0671H96.7974V6.1568V6.1568ZM101.201 9.0428V12.8055C101.694 12.8055 102.036 12.7378 102.231 12.6022C102.428 12.4671 102.527 12.0249 102.527 11.2801V10.3505C102.527 9.8122 102.431 9.4598 102.242 9.2924C102.053 9.1249 101.704 9.0428 101.201 9.0428V9.0428ZM118.336 16.0691C118.336 17.7687 118.297 18.9695 118.215 19.6747C118.137 20.384 117.887 21.0291 117.467 21.6131C117.047 22.1976 116.477 22.6465 115.76 22.9603C115.044 23.2736 114.21 23.4303 113.259 23.4303C112.354 23.4303 111.545 23.2808 110.825 22.985C110.105 22.6892 109.525 22.2474 109.09 21.6562C108.652 21.0646 108.392 20.4195 108.306 19.725C108.224 19.0265 108.181 17.8077 108.181 16.0691V13.1759C108.181 11.4763 108.221 10.2755 108.302 9.5703C108.381 8.861 108.631 8.2163 109.051 7.6319C109.472 7.0474 110.042 6.5985 110.757 6.2851C111.473 5.9714 112.308 5.8147 113.259 5.8147C114.164 5.8147 114.973 5.9642 115.692 6.26C116.412 6.5558 116.993 6.9976 117.427 7.5892C117.866 8.1804 118.126 8.8255 118.211 9.5204C118.293 10.2185 118.336 11.4373 118.336 13.1759V16.0691V16.0691ZM113.933 10.5143C113.933 9.7305 113.889 9.2282 113.804 9.0073C113.718 8.7896 113.544 8.6792 113.28 8.6792C113.056 8.6792 112.885 8.7685 112.764 8.9467C112.646 9.1213 112.586 9.6448 112.586 10.5143V18.4066C112.586 19.3865 112.625 19.9921 112.703 20.2202C112.782 20.4518 112.963 20.5658 113.249 20.5658C113.54 20.5658 113.729 20.4338 113.811 20.1703C113.893 19.9064 113.933 19.2757 113.933 18.2818V10.5143ZM129.973 6.1568V17.4625C129.973 18.745 129.931 19.6465 129.848 20.1631C129.763 20.6834 129.517 21.2176 129.107 21.7631C128.698 22.3116 128.156 22.7251 127.486 23.0065C126.813 23.288 126.022 23.4303 125.11 23.4303C124.102 23.4303 123.21 23.2629 122.441 22.928C121.667 22.5931 121.091 22.1585 120.709 21.6239C120.324 21.0861 120.1 20.5196 120.028 19.9243C119.961 19.3295 119.925 18.0753 119.925 16.1688V6.1568H124.33V18.8411C124.33 19.5787 124.368 20.0527 124.447 20.2556C124.525 20.4626 124.686 20.5658 124.925 20.5658C125.195 20.5658 125.373 20.4518 125.451 20.2273C125.53 19.9993 125.569 19.4646 125.569 18.6238V6.1568H129.973V6.1568ZM131.68 6.1568H136.109C137.306 6.1568 138.225 6.2492 138.87 6.4382C139.512 6.6272 139.996 6.8979 140.32 7.2507C140.644 7.6067 140.862 8.0381 140.98 8.5405C141.094 9.0464 141.151 9.8266 141.151 10.8847V12.3566C141.151 13.4327 141.04 14.22 140.815 14.7116C140.595 15.2067 140.185 15.5879 139.594 15.8518C138.999 16.1153 138.222 16.2473 137.263 16.2473H136.084V23.0671H131.68V6.1568V6.1568ZM136.084 9.0428V13.3505C136.208 13.3577 136.316 13.3613 136.404 13.3613C136.808 13.3613 137.085 13.2616 137.242 13.0619C137.395 12.8661 137.473 12.4527 137.473 11.8256V10.4322C137.473 9.8553 137.384 9.4773 137.203 9.30271C137.025 9.12811 136.65 9.0428 136.084 9.0428Z" fill="#E31E25"/>
<path d="M61.0392 6.1568V9.5343H58.4522V23.0671H54.0484V9.5343H51.4403V6.1568H61.0392ZM62.0439 6.1568H69.3768V9.5343H66.4477V12.7624H69.1842V15.9694H66.4477V19.6891H69.6758V23.0671H62.0439V6.1568V6.1568ZM79.83 6.1568L78.2907 13.6356L80.6215 23.0671H76.5598C76.0749 21.3779 75.6265 19.3223 75.213 16.8924C75.0882 17.9752 74.928 19.1118 74.7282 20.309L74.3363 23.0671H70.0609L71.6635 13.6356L70.0609 6.1568H74.3152C74.4041 6.6236 74.5536 7.4038 74.7677 8.4942C74.9419 9.3207 75.0918 10.0865 75.213 10.785L76.1535 6.1568H79.83V6.1568Z" fill="#EF7F1A"/>
<path d="M144.5 0C145.271 0 145.97 0.313803 146.476 0.820103C146.983 1.3252 147.296 2.0246 147.296 2.7962C147.296 3.567 146.983 4.2664 146.477 4.7723C145.971 5.2791 145.272 5.592 144.5 5.592C143.728 5.592 143.029 5.2791 142.523 4.7732C142.018 4.2677 141.705 3.5679 141.705 2.7962C141.705 2.0259 142.018 1.3261 142.523 0.820103C143.03 0.313303 143.73 0 144.5 0ZM143.407 4.1138V1.4782H144.528C144.809 1.4782 145.015 1.502 145.142 1.5492C145.27 1.5967 145.372 1.6807 145.449 1.8014C145.525 1.9231 145.564 2.0609 145.564 2.2171C145.564 2.4151 145.507 2.5781 145.39 2.7073C145.275 2.8362 145.102 2.917 144.871 2.9507C144.985 3.0175 145.08 3.0912 145.154 3.1715C145.23 3.2519 145.33 3.3951 145.457 3.5998L145.778 4.1138H145.142L144.76 3.5387C144.624 3.3345 144.529 3.2052 144.478 3.1518C144.428 3.0992 144.374 3.0624 144.318 3.0431C144.261 3.0229 144.171 3.013 144.049 3.013H143.941V4.1138H143.407ZM143.941 2.5938H144.334C144.589 2.5938 144.749 2.583 144.813 2.561C144.876 2.5399 144.926 2.5022 144.962 2.4492C144.998 2.3967 145.015 2.3303 145.015 2.2517C145.015 2.1624 144.992 2.091 144.944 2.0358C144.897 1.9815 144.83 1.9469 144.745 1.933C144.701 1.9267 144.572 1.924 144.357 1.924H143.941V2.5938V2.5938ZM146.122 1.1743C145.708 0.759502 145.134 0.503203 144.5 0.503203C143.866 0.503203 143.293 0.759501 142.879 1.1739C142.463 1.5887 142.207 2.1624 142.207 2.7962C142.207 3.4296 142.464 4.00331 142.879 4.4177C143.293 4.8325 143.867 5.0893 144.5 5.0893C145.133 5.0893 145.707 4.8325 146.122 4.4177C146.537 4.0038 146.793 3.4296 146.793 2.7962C146.793 2.1628 146.536 1.5891 146.122 1.1743Z" fill="#E31E25"/>
<path fill-rule="evenodd" clip-rule="evenodd" d="M25.5385 6.14501L28.9369 23.0408C29.0338 23.5745 28.6455 24.1091 28.0148 24.1091L23.1114 24.1576L23.2083 24.5459C23.3537 25.0796 22.9168 25.6626 22.2862 25.6141L17.1398 25.6626V23.284C20.7812 23.284 24.4711 23.2355 28.1125 23.187L24.7141 6.29111L17.1405 6.33961V4.63991H19.2754C19.7607 4.63991 19.8584 5.0768 20.0037 5.4167L24.7133 5.36821C25.1017 5.41671 25.4901 5.75671 25.5385 6.14501ZM17.0905 25.6626H17.1398V23.284C13.4983 23.284 9.8084 23.3323 6.167 23.3323L9.9053 6.388L17.1398 6.33961V4.63991H16.12C15.6347 4.63991 15.5371 5.07681 15.3917 5.46521L9.9053 5.51361C9.517 5.46521 9.1286 5.7567 9.0317 6.1934L5.2934 23.1378C5.1472 23.6722 5.5841 24.206 6.167 24.206H11.4103L11.3134 24.6428C11.2158 25.2257 11.6534 25.711 12.1871 25.711L17.0905 25.6626V25.6626Z" fill="#EF7F1A"/>
<path fill-rule="evenodd" clip-rule="evenodd" d="M27.4804 20.953C25.6354 21.5359 16.9452 21.4382 11.8472 21.875L15.5371 21.0983C16.0708 21.0015 16.12 20.71 15.9739 20.3216V20.3224L13.4976 12.0205L16.4107 13.9139L19.0808 10.4186L13.4976 7.5538L11.6042 7.7484C11.6526 10.7585 7.3805 11.1953 6.6031 8.2337L4.7096 8.4283L0 12.2635L3.5446 15.1282L5.9232 12.7496L5.6802 21.489L10.8267 21.0037C11.9433 20.9069 14.2735 20.6154 15.2448 20.6638C15.1964 20.6638 15.0995 20.7122 14.9049 20.7607C12.8654 21.1006 10.2437 21.732 8.3504 22.5088L8.3988 22.994H8.4472C10.8259 21.8289 24.5172 22.3626 26.9936 21.5374L27.4804 20.953V20.953Z" fill="#E31E25"/>
</svg>
