<svg width="295" height="497" viewBox="0 0 295 497" fill="none" xmlns="http://www.w3.org/2000/svg">
<path d="M254.07 495.47C248.91 489.51 243.54 483.73 238.32 477.83C232.32 471.05 228.35 463.72 224.02 455.86C220.26 449.05 215.37 443.11 209.94 437.59C206.77 434.37 203.98 432.35 202.33 427.83C200.95 424.07 199.51 420.23 197.73 416.64C193.64 408.4 192.35 401.15 192.34 392C192.34 388.51 192.38 385.14 191.82 381.68C191.24 378.03 190.02 374.49 190.08 370.77C190.13 367.4 189.76 364.17 189.49 360.82C189.05 355.47 193.11 353.42 195.54 349.38C197.22 346.58 198.22 343.39 199.69 340.48C200.29 339.29 200.91 338.22 201.52 337.16C202.87 340.9 205.04 344.41 207.28 347.13C207.63 347.55 208.45 347.45 208.4 346.78C208.16 343.46 208.03 341.21 209.76 338.17C210.84 336.26 211.23 334.61 211.25 332.41C211.25 331.79 211.17 331.17 211.03 330.56C211.2 330.72 211.37 330.89 211.54 331.04C215.01 334.37 219.75 337.62 224.4 338.85C226.85 339.5 228.76 339.79 231.32 340.07C236.48 340.64 238.51 344.93 241.87 348.05C244.58 350.56 248.43 350.84 252.07 351.43C253.72 351.52 255.36 351.74 257.01 352.11C257.06 352.05 257.09 351.97 257.13 351.91C256.31 351.37 255.52 350.8 254.79 350.2C254.05 349.6 253.49 348.93 253.09 348.25C250.48 346.02 248.71 343.02 246.13 340.74C249.02 341.48 251.92 341.78 254.72 340.45C258.5 338.64 261.66 336.27 265.69 334.85C267.92 334.06 269.95 332.9 271.8 331.47C274.26 330.16 276.47 328.37 278.39 326.33C281.32 323.22 282.15 317.92 283.68 314.11C285.45 309.67 289.67 306.69 292.06 302.6C294.31 298.75 294.25 294.48 294.43 290.17C294.77 281.99 294.55 274.83 289.68 269V268.99C288.46 265.04 287.29 261.58 286.53 257.47C285.74 253.15 284.44 248.71 281.54 245.29C275.07 237.67 265.58 236.89 257.23 232.75C254.69 229.24 251.18 226.41 247.05 225.18C238.4 220.22 227.65 225.66 218.05 227.66C214.01 227.86 210.05 227.1 205.97 227.75C202.52 228.3 199.09 230.27 196.36 232.36C193.47 234.57 191.71 238.07 189.6 240.93C187.08 244.35 183.85 247.26 181.46 250.76C177.14 257.1 177.95 262.87 179.81 269.94C179.97 270.55 180.1 271.16 180.22 271.77C178.69 268.11 175.9 265.09 173.31 262.04C171.77 259.61 169.92 257.45 167.67 256.01C167.49 255.8 167.31 255.6 167.12 255.41C166.92 255.21 166.61 255.49 166.75 255.72C170.53 262.05 171.54 269.45 171.54 276.71C171.54 282.07 171.84 287.4 175.95 291.55C178.88 294.5 181.36 296.14 182.67 300.47C183.51 303.23 183.9 306.14 185.24 308.74C187.01 312.18 189.96 314.77 193.31 316.73C192.96 316.69 192.61 316.65 192.27 316.62C189.63 316.41 187.18 317.18 184.78 318.2C182.77 319.05 180.5 320.08 178.85 321.54C178.56 321.8 178.72 322.23 178.99 322.41C183.13 325.16 187.27 327.9 192.33 328.3C193.75 328.41 195.17 328.25 196.55 327.93C195.74 329.89 192.44 337.83 192.46 337.78C190.89 341.8 188.81 345.57 186.82 349.39C183.34 356.06 181.15 362.48 181.82 370.07C182.06 372.82 183.34 375.55 184.33 378.09C185.98 382.31 187.29 386.6 188.36 391C189.56 395.92 190.11 400.72 191.19 405.42C191.31 406.13 191.44 406.85 191.59 407.56C187.72 397.23 183.91 386.91 178.42 377.27C174.79 370.89 170.58 364.85 166.83 358.53C162.88 351.86 160.07 344.26 157.66 336.92C153.48 324.18 153.24 309.32 153.99 296.01C154.16 293.02 154.62 290.13 155.25 287.28C157.26 283.69 158.45 279.64 159.75 275.74C161.57 270.29 163.48 264.54 164.9 258.97C166.05 254.45 165.98 249.27 166.43 244.6C166.86 240.11 166.18 235 165.24 230.43C165.16 226.25 164.98 222.09 164.75 217.96C164.32 210.25 164.2 202.51 167.41 195.31C170.35 188.7 176.14 183.46 181.14 178.42C196.79 162.65 204.82 142.75 201.1 121.13C204.25 122.79 207.99 123.35 211.73 123.1C215.5 122.85 219.24 121.67 222.96 121.11C228.23 120.32 232.42 122.01 236.91 124.22C236.95 124.25 236.99 124.29 237.04 124.32C237.09 124.36 237.15 124.37 237.21 124.37C237.51 124.52 237.82 124.67 238.12 124.83C238.31 124.92 238.52 124.66 238.34 124.52C237.71 124.02 237.08 123.57 236.44 123.15C231.11 118.28 226.56 113.88 219.42 111.57C218.88 111.4 218.33 111.27 217.76 111.16C217.76 111.16 217.76 111.16 217.77 111.16C221.84 111.18 225.6 112.05 229.66 111.14C232.97 110.4 235.74 107.91 238.24 105.77C242.11 102.46 245.86 99 249.65 95.61C249.77 95.51 249.61 95.32 249.48 95.4C248.7 95.9 247.94 96.46 247.19 97.04C247.16 97.03 247.12 97.03 247.08 97.05C244.33 98.53 241.97 100.36 238.97 101.44C237.9 101.82 236.8 102.06 235.68 102.25C236.96 101.35 238.1 100.3 239.1 99.13C243.31 95.28 245.51 88.16 247 83.38C248.67 78.05 251.27 69.67 249.43 63.72C249.53 56.86 248.96 49.97 248.22 43.44C247.82 39.9 246.94 36.48 245.89 33.1C245.5 31.16 244.97 29.27 244.29 27.44C243.7 25.2 243.07 22.95 242.16 21.11C239.35 15.39 234.44 11.11 228.9 8.12999C223.86 5.40999 218.17 4.78 212.63 5.73C212.3 5.48 211.95 5.2 211.6 4.93C209.63 2.9 207.33 1.6 204.29 1.29C202.68 1.12 201.11 1.58999 199.58 2.02999C195.93 3.06999 193.91 2 190.67 0.789997C186.68 -0.700003 183.08 1.33999 179.21 2.51999C175.49 3.64999 170.8 6.38 167.76 8.86C165.02 9.04 162.32 9.55 159.79 10.46C146.73 15.16 136.57 27.71 134.76 41.57C133.84 48.58 132.42 55.65 132.31 62.74C132.19 70.29 135.07 76.24 138.67 82.65C142.39 89.28 144.65 95.1 151.21 99.52C152.57 100.44 154.11 101.16 155.71 101.81C154.68 101.79 153.65 101.79 152.65 101.76C148.74 101.64 145.67 100.59 141.97 99.64C141.95 99.63 141.93 99.64 141.91 99.65C141.78 99.51 141.66 99.36 141.58 99.2C141.5 99.05 141.28 99.12 141.24 99.26C141.1 99.79 141.44 100.17 141.73 100.6C142.98 102.46 144.01 104.42 144.89 106.49C145.74 108.48 147.52 110.79 149.69 111.2C147.23 112.71 144.5 114.44 141.7 114.42C141.51 114.42 141.41 114.58 141.4 114.74C141.39 114.74 141.38 114.73 141.36 114.73C141.22 114.68 141.14 114.86 141.2 114.96C142.28 117.07 146.15 117.25 148.17 117.55C152.34 118.18 156.33 117.96 159.95 115.69C163.21 113.65 165.89 110.36 170.3 110.88C172.28 111.12 174.28 111.58 176.25 112.08C176.04 112.13 175.83 112.18 175.6 112.25C173.3 112.91 171.3 114.27 168.99 114.95C168 115.24 166.64 115.52 165.82 116.2C163.51 118.14 163.39 120.22 163.82 123.08C164.07 124.73 160.29 128.26 161.88 130.3C164.1 133.15 165.48 131.37 168.51 132.84C169.27 133.21 170.95 134.26 171.76 133.39C172.68 132.4 172.64 130.83 171.99 129.68C171.46 128.75 170.67 127.81 169.82 126.86C167.65 122.56 170.97 119.94 174.47 118.98C174.81 118.91 175.15 118.83 175.47 118.75C175.66 118.72 175.84 118.68 176.02 118.66C177.07 118.52 178.03 118.31 178.94 117.73C179.99 117.06 180.42 116.09 181.07 115.4C182.21 115.05 183.43 115.19 184.67 115.47C183.31 116.2 182.2 117.28 181.24 119.11C179.84 121.78 179.16 125.67 179.87 128.62C179.97 129.02 180.46 129.04 180.72 128.81C184.26 125.72 189.29 126.05 192.67 122.84C193.2 122.34 193.66 121.8 194.08 121.24C192.96 130.09 190.83 138.86 189.19 147.61C188.19 152.94 186.92 158.2 184.49 163.06C181.95 168.16 177.73 172.07 173.97 176.26C167.81 183.13 163.5 190.72 160.45 199.4C157.53 207.73 159.64 216.51 160.66 225.14C160.91 227.28 161.58 229.31 161.68 231.48C161.77 233.45 160.85 235.29 160.67 237.22C160.2 242.41 159.46 247.22 157.87 252.18C155.12 260.73 150.26 268.76 149.01 277.73C148.44 281.76 149.64 285.74 149.81 289.76C150 294.24 149.24 298.75 148.98 303.22C148.74 307.21 148.43 311.14 148.35 315.05C147.63 311.13 146.6 307.28 144.34 303.42C142.08 299.56 139.84 295.67 137.55 291.82C136.87 290.14 135.86 288.55 134.65 287.05C132.65 283.84 130.58 280.67 128.38 277.6C122.34 269.18 114.32 261.65 111.91 251.28C111.09 247.72 111.04 243.1 109.4 239.83C109.08 239.2 108.7 238.63 108.26 238.11C109.49 238.58 110.69 239.14 111.82 239.96C115.94 242.96 120.96 243 124.02 238.8C124.17 238.72 124.27 238.56 124.2 238.39C123.92 237.68 123.34 237.87 122.52 237.72C118.6 237 116.04 235.08 112.67 233.16C111.17 232.3 109.56 231.76 107.89 231.37C109.94 231.32 111.95 230.55 113.77 229.68C116.75 228.26 119.98 227.66 122.8 225.97C124.95 224.68 126.4 222.06 127.6 219.97C130.5 214.91 134.47 213.52 139.45 211.27C144.57 208.96 145.56 207 146.38 202.84C146.43 202.71 146.48 202.59 146.51 202.47C146.95 200.94 147.83 199.63 148.79 198.36C148.85 198.28 148.76 198.15 148.67 198.22C148.32 198.49 147.97 198.76 147.64 199.03C147.61 199.03 147.57 199.03 147.54 199.05C145.05 200.49 142.37 201.42 139.62 202.11C142.11 199.74 143.5 196.57 144.76 193.16C146.06 189.66 145.81 185.31 148.41 182.5C149.89 180.91 150.75 179.22 151.11 177.09C151.7 173.66 151.9 170.58 153.04 167.24C153.94 164.61 155.02 161.93 155.1 159.1C155.26 153.04 153.14 147.43 150.82 141.91C146.56 131.79 137.65 124.82 126.97 123.27C125.08 120.76 122.76 119.59 119.65 118.81C114.55 117.52 110.38 116.1 106.04 113.02C102.32 110.38 99.18 109.41 94.67 109.15C92.78 109.04 90.64 108.52 88.77 109.05C87 109.55 84.95 110.92 83.07 110.71C82.96 110.7 82.86 110.71 82.77 110.74C80.27 108.26 77.25 106.73 73.64 106.24C67.93 105.46 64.02 109.55 59.18 111.62C48.65 116.12 36.04 114.32 31.53 127.2C30.47 130.21 29.64 133.3 28.48 136.27C27.61 138.5 26.21 140.41 25.47 142.71C24.68 145.18 25.26 148.65 25.34 151.2C25.4 153.08 25.44 154.95 25.38 156.81C24.46 159.84 24.17 162.83 25.01 166.01C25.5 167.87 26.64 169.42 27.63 171.04C28.12 171.84 28.3 172.65 28.54 173.43C28.47 178.12 29.13 182.78 30.29 187.38C27.41 184.53 23.34 183.64 18.7 181.82C12.18 179.25 6.77 179.79 0.820003 183.94C0.740003 183.93 0.669992 183.91 0.589992 183.9C0.319992 183.85 0.0800027 184.21 0.320003 184.4C1.91 185.67 4.58 185.7 6.41 186.4C9.86 187.72 12.93 190.81 15.47 193.42C20.85 198.94 23.27 206.04 29.11 211.11C30.98 212.73 33.62 212.44 35.55 214.03C37.7 215.8 39.77 218.32 42.49 219.26C45.63 220.34 51.03 221.81 55.09 221.17C55.67 221.38 56.26 221.58 56.85 221.78C60.99 223.14 65.43 223.99 69.78 224.08C73.29 224.15 76.39 224.78 79.56 225.6C78.45 225.77 77.34 225.96 76.18 225.86C74.86 225.74 73.23 225.65 72.03 226.36C68.57 228.42 65.54 229.41 61.62 230.15C57.7 230.89 56.58 235.88 54.45 238.43C54.12 238.83 54.27 239.47 54.8 239.59C56.59 240.01 57.37 239.47 59.15 238.94C62.46 237.96 66.18 239.28 69.33 238.2C71.88 237.32 73.26 235.5 75.48 233.95C77.86 232.28 80.37 232.34 82.76 231.59C81.61 233.27 80.76 235.16 80.33 237.14C79.66 240.22 82.33 242.89 81.3 246.01C81.21 246.27 81.34 246.59 81.53 246.77C81.57 246.81 81.62 246.85 81.66 246.89C82.05 247.25 82.62 247.11 82.89 246.69C86.18 241.56 92.82 241.64 96.23 236.96C96.7 238.18 97.59 239.38 98.18 240.37C99.95 243.31 101.59 245.84 102.29 249.26C102.9 252.24 103.77 255.05 104.81 257.91C106.53 262.66 109.48 266.83 113.25 270.14C117.78 274.13 120.45 279.95 124.55 284.46C129.27 289.66 132.34 295.25 136.3 300.93C140.21 306.53 141.86 312.27 144.24 318.56C146.49 324.51 147.44 330.35 149.07 336.46C150.56 342.03 153.29 347.53 155.15 353.03C156.08 355.77 157.26 358.41 158.61 360.97C159.53 362.85 160.59 364.67 161.78 366.39C161.78 366.4 161.79 366.41 161.8 366.42C161.82 366.45 161.84 366.48 161.86 366.5C161.92 366.59 161.98 366.68 162.04 366.77C165.45 371.94 170.15 376.07 173.65 381.21C180.51 391.27 181.81 403.32 186.83 414.14C189.58 420.08 192.59 425.81 195.07 431.89C197.2 437.11 201 440.84 204.03 445.47C206.9 449.86 213.13 452.3 217.23 455.31C219.58 457.04 221.8 459.09 223.85 461.31C224.26 461.99 224.69 462.66 225.15 463.33C225.29 463.53 225.52 463.48 225.62 463.32C225.89 463.64 226.16 463.97 226.42 464.3C226.79 465.04 227.17 465.79 227.6 466.51C227.73 466.74 227.94 466.79 228.14 466.75C230.08 469.94 232.13 473.06 234.59 476.02C240.48 483.08 247.03 489.63 253.58 496.08C253.91 496.38 254.38 495.83 254.07 495.47ZM212.16 443.35C214.54 445.71 216.62 448.37 218.54 451.13C214.29 447.32 209.61 443.8 206.14 438.96C205.69 438.34 205.24 437.73 204.78 437.12C205.51 437.52 206.24 437.92 206.87 438.43C208.74 439.94 210.46 441.67 212.16 443.35ZM186.22 403.7C184.95 399.69 184.03 395.69 182.87 391.73C188.09 403.73 190.93 417.05 197.59 428.16C196.26 426.46 194.97 424.71 193.8 422.87C190.35 417.42 188.15 409.81 186.22 403.7ZM149.44 329.65C149.48 329.39 149.51 329.2 149.53 329.09C149.58 329.31 149.63 329.53 149.68 329.75C149.75 330.29 149.85 331.12 150.05 332.33C150.13 332.83 150.2 333.32 150.28 333.8C149.93 332.43 149.67 331.04 149.44 329.65ZM163.8 355.85C163.9 356.08 164.01 356.31 164.11 356.55C165.2 359.15 166.17 361.78 167.28 364.37C165.61 361.83 164.03 359.19 162.67 356.38C160.4 351.69 158.01 347.06 155.86 342.34C156.3 343.09 156.75 343.84 157.24 344.59C158.98 347.31 160.68 349.84 162.17 352.58C162.71 353.67 163.24 354.77 163.8 355.85ZM170.37 371.96C169.11 370.75 167.86 369.54 166.68 368.23C163.43 363.77 161.25 357.99 158.59 353.38C158.43 353.1 158.13 352.61 157.75 351.98C157.7 351.84 157.65 351.7 157.6 351.56C156.86 349.34 156.13 347.13 155.39 344.91C157.63 349.55 160.08 354.1 162.33 358.68C164.44 362.99 167.11 366.9 169.89 370.76C170.05 371.16 170.21 371.56 170.37 371.96ZM196.44 422.06C195.47 419.96 194.58 417.81 193.74 415.63C193.81 415.59 193.88 415.55 193.94 415.5C194.79 417.68 195.63 419.87 196.44 422.06ZM195.75 340.44C193.91 344.09 193.24 348.79 190.34 351.76C187.98 354.18 186.59 355.26 185.95 358.73C185.33 362.1 186.07 366.11 186.38 369.49C186.68 372.82 187.59 375.69 188.8 378.81C189.27 380.03 189.58 381.27 189.8 382.52C189.56 381.94 189.3 381.35 189.02 380.75C186.19 374.55 184.47 367.76 184.21 360.96C184.04 356.45 187.37 354.4 189.5 351.14C191.52 348.04 192.33 344.61 194.09 341.39C194.22 341.16 194.34 340.93 194.47 340.7C194.84 340.32 195.08 339.78 195.34 339.33C196.45 337.47 197.63 335.61 198.8 333.78C199.23 333.11 199.74 332.28 200.19 331.37C200.28 332.35 200.44 333.33 200.67 334.31C198.92 336.22 197 337.95 195.75 340.44ZM181.04 322.42C180.95 322.35 180.87 322.29 180.82 322.23C182.51 321.75 184.01 320.82 185.86 320.59C188.18 320.3 190.5 321.2 192.68 321.86C193.89 322.23 195.14 322.54 196.39 322.7C194.58 323.31 192.73 323.68 190.51 323.34C187.17 322.82 184.61 321.55 181.2 322.21C181.07 322.23 181.03 322.32 181.04 322.42ZM234.17 335.51C231.07 334.57 228.17 333.06 225.27 331.55C226.08 331.56 226.9 331.54 227.71 331.47C230.9 331.94 234.14 332.02 237.39 332.13C242.07 332.3 246.82 332.85 251.4 331.61C253.5 331.04 255.46 329.82 257.32 328.74C259.7 327.35 262.07 326.34 264.73 325.6C269.13 324.37 272.92 323.32 275.12 319C277.19 314.94 277.42 309.9 278.9 305.59C280.69 300.38 283.46 295.77 284.12 290.2C284.69 285.41 284.18 280.38 283.72 275.6C283.51 273.35 283.26 271.08 282.81 268.87C282.8 268.84 282.8 268.81 282.79 268.78C284.43 270.71 285.72 272.98 286.64 275.65C288.43 280.86 289.67 286.35 288.62 291.85C287.61 297.15 283.75 301.38 281.42 306.1C279.1 310.79 278.68 316.09 276.53 320.82C273.87 326.67 267.81 328.07 262.15 329.42C256.97 330.66 252.29 333.26 247.34 335.16C245.15 336 242.81 336.33 240.47 336.37C238.3 336.41 236.28 335.78 234.17 335.51ZM206.86 331.71C206.52 333.09 206.03 334.44 205.9 335.86C205.71 337.97 205.89 340.42 206.47 342.6C206.14 342.08 205.81 341.54 205.57 340.94C204.65 338.67 204.71 335.95 204.86 333.54C204.99 331.59 205.99 329.9 206.11 327.96C206.13 327.67 206.13 327.38 206.13 327.09C206.51 327.68 206.87 328.28 207.2 328.89C207.17 329.83 207.09 330.75 206.86 331.71ZM202.74 336.64C202.43 333.59 203.52 330.27 204.47 327.48C204.74 326.69 204.82 325.86 204.77 325.02C204.87 325.18 204.97 325.34 205.08 325.5C205.15 326.93 205.15 328.33 204.81 329.86C204.43 331.58 204.01 332.69 203.91 334.48C203.68 338.33 204.72 340.98 206.5 343.95C204.92 341.61 203.62 339.16 202.74 336.64ZM260.09 253.32C253.6 246.39 245.66 243.11 235.42 243.78C230.1 244.13 225.52 246.62 220.96 249.13C215.77 251.99 210.1 253.27 206.78 258.48C205.16 261.03 204.04 263.91 202.81 266.66C201.3 270.04 199.17 272.98 197.26 276.14C194.79 280.21 192.14 285.1 191.24 289.98C191.21 289.75 191.17 289.52 191.15 289.29C190.95 287.07 191.32 284.85 191.86 282.71C192.98 278.32 195.98 274.82 197.94 270.83C199.67 267.32 200.21 263.34 201.1 259.57C202.4 254.1 204.84 249.89 208.7 245.82C211.91 242.43 215.48 239.08 220.01 237.63C224.61 236.16 229.55 237.73 233.97 239.07C238.39 240.41 242.87 241.33 247.42 242.1C252.51 242.95 257.49 244.66 259.77 249.39C259.81 250.68 259.83 252.07 260.09 253.32ZM253.37 325.17C248.63 328.02 243.01 328.68 237.41 329C242.76 326.86 247.81 324.04 253.34 322.3C254.8 321.84 256.26 321.45 257.74 321.1C256.62 322.67 255.24 324.05 253.37 325.17ZM214.78 255.22C216.21 254.52 217.72 253.85 219.24 253.03C223.79 250.58 227.37 247.29 232.49 245.93C237.32 244.64 241.86 244.84 246.08 246.07C241.51 245.72 236.7 246.95 232.7 248.82C230.44 249.88 228.41 251.36 226.28 252.64C224.06 253.97 221.71 255.02 219.4 256.16C215.13 258.27 212.7 260.83 211.07 265.31C209.38 269.93 208.37 274.79 206.73 279.44C204.87 284.71 201.73 288.91 198.7 293.52C196.47 296.91 195.09 300.94 194.79 304.98C194.71 306.03 194.65 307.12 194.68 308.19C194.34 306.57 194.63 305.11 194.63 303.26C194.63 300.21 194.75 297.17 195.55 294.21C196.21 291.76 198.1 289.46 199.37 287.31C200.68 285.1 201.78 282.73 202.66 280.32C204.57 275.11 205.52 269.6 207.5 264.41C208.48 261.84 209.86 259.49 211.81 257.55C212.7 256.64 213.74 255.92 214.78 255.22ZM263 262.4C263 263.94 263.15 265.47 263.33 266.99C263.7 270.26 264.25 273.39 264.08 276.7C263.91 280.08 263.05 283.42 261.98 286.62C260.77 290.27 258.41 293.07 256.4 296.28C254.48 299.35 253.28 302.76 251.55 305.92C249.6 309.5 246.76 312.36 243.38 314.6C240.29 316.64 237.48 319.12 234.07 320.65C233.8 320.77 233.53 320.87 233.25 320.97C231.9 321.14 230.53 321.23 229.13 321.26C225.45 321.33 221.82 321.43 218.16 321.71C219.02 321.41 219.86 321.07 220.69 320.67C224.8 318.71 228.71 316.89 233.13 315.76C237 314.77 239.32 312.86 241.64 309.64C244.45 305.75 248.8 304.01 251.86 300.44C254.51 297.35 255.64 292.96 257.21 289.27C258.97 285.12 260.28 280.98 260.86 276.49C261.43 272.06 261.61 267.6 262.28 263.19C262.47 261.95 263.24 259.78 263.04 258.14C263.04 258.14 263.04 258.15 263.05 258.15C263.54 259.54 263 260.99 263 262.4ZM198.52 314.12C197.55 310.57 198.79 307.65 200.23 304.2C201.98 300 204.18 296.28 206.54 292.41C208.56 289.11 209.99 285.79 210.83 282.02C211.91 277.2 213.38 273.4 216.56 269.53C219.31 266.19 222.39 263.08 225.35 259.93C228.77 256.3 231.83 252.95 236.8 251.52C244.94 249.17 254.11 250.82 261.01 255.74C259.39 255.24 257.55 255.26 255.86 255.31C251.84 255.42 247.65 256.16 243.88 257.53C235.3 260.64 229.02 269.09 225.43 277.11C223.38 281.7 220.51 285.71 217.28 289.54C214.1 293.32 210.57 297.02 208.36 301.49C207.59 303.06 207.18 304.82 206.67 306.48C205.96 308.81 204.81 310.56 203.42 312.52C202.07 314.43 201.27 316.64 202.05 318.74C201.96 318.68 201.86 318.61 201.78 318.54C200.75 317.69 199.98 316.41 199.18 315.33C198.92 314.95 198.74 314.52 198.52 314.12ZM241.43 308.14C240.11 309.85 239.02 311.6 237.25 312.91C235.75 314.03 233.77 314.47 231.99 314.92C228.69 315.75 225.65 317 222.59 318.46C218.78 320.28 215.5 321.37 211.35 321.7C211.31 321.7 211.27 321.69 211.23 321.69C211.32 321.67 211.42 321.65 211.51 321.61C212.52 321.26 213.55 320.64 214.33 319.92C215.02 319.28 215.55 318.48 216.19 317.79C217.29 316.61 218.89 316.14 220.36 315.65C224.3 314.33 226.22 310.28 229.42 307.84C232.91 305.18 236.81 303.5 239.84 300.22C242.77 297.05 245.16 293.23 247.52 289.63C249.91 285.97 251.79 282.16 253.09 277.99C253.71 275.98 254.09 273.9 254.7 271.88C255.43 269.45 256.86 267.34 258.2 265.22C259.24 263.56 260.19 261.85 261.2 260.17C261.58 259.54 261.84 258.87 262.09 258.19C262.09 258.18 262.13 257.96 262.16 257.71C262.43 259.02 261.69 261.07 261.51 262.06C261.16 263.89 260.91 265.75 260.69 267.6C260.23 271.44 260.06 275.3 259.42 279.13C258.76 283.09 257.14 286.83 255.57 290.5C253.97 294.25 252.87 298.11 249.88 301.07C247.18 303.74 243.8 305.05 241.43 308.14ZM203.6 319.43C201.4 316.23 204.24 313.33 205.99 310.75C208.1 307.65 208.26 303.58 210.15 300.33C214.24 293.29 220.68 287.99 224.66 280.83C226.5 277.53 227.98 274.14 230 270.93C232.8 266.48 236.21 263.52 240.38 260.39C243.55 258.02 247.83 257.19 251.66 256.68C254.8 256.26 258.5 255.73 261.5 256.99C261.29 257.48 261.21 258.14 261.05 258.52C260.47 259.82 259.55 260.99 258.86 262.24C256.95 265.71 254.61 268.68 253.45 272.52C252.32 276.25 251.62 279.92 249.9 283.47C247.92 287.54 245.32 291.36 242.64 295C240.17 298.36 237.66 301.28 234.15 303.6C231 305.68 227.81 307.29 225.29 310.17C223.67 312.01 222.47 313.7 220.02 314.59C218.62 315.1 217.13 315.48 215.98 316.5C214.41 317.89 213.01 320.31 208.52 321.21C207.46 320.99 206.41 320.74 205.35 320.47C204.83 320.06 204.25 319.8 203.66 319.55C203.64 319.51 203.63 319.47 203.6 319.43ZM264.63 318.98C264.3 319 263.96 319.04 263.63 319.07C263.03 319.08 262.41 319.12 261.78 319.2C260.75 319.34 259.72 319.44 258.69 319.56C257.3 319.59 255.91 319.62 254.53 319.75C251.38 320.07 248.21 320.65 245.18 321.59C247.59 320.58 249.98 319.63 252.71 319.24C256.55 318.7 260.68 318.66 264.63 318.98ZM242.9 323.52C245.27 322.46 247.82 321.82 250.39 321.37C249.27 321.78 248.15 322.21 247 322.57C244.58 323.32 242.24 324.12 239.94 325.19C240.88 324.57 241.85 323.99 242.9 323.52ZM236.15 326.39C234.1 327.53 231.91 327.67 229.63 327.84C228.52 327.92 227.42 328.16 226.31 328.3C226.75 328.17 227.17 328.04 227.55 327.94C231.93 326.75 236.13 324.98 240.42 323.5C240.84 323.36 241.24 323.2 241.65 323.05C239.76 324.06 238.08 325.32 236.15 326.39ZM267.37 319.14C267.38 319.12 267.39 319.1 267.39 319.07C267.55 319.11 267.7 319.15 267.86 319.2C267.7 319.18 267.54 319.16 267.37 319.14ZM244.17 320.93C240.19 322.75 235.98 324.06 231.85 325.5C229.72 326.24 227.56 326.85 225.38 327.38C225.3 327.4 225.22 327.42 225.13 327.44C224.67 327.5 224.22 327.56 223.75 327.6C222.4 327.69 220.91 327.54 219.58 327.34C219.33 327.3 219.11 327.25 218.89 327.21C220.58 327.19 222.25 327 223.93 326.7C229.7 325.67 235.56 323.71 241.13 321.91C243.69 321.08 246.13 319.89 248.67 319.01C251.51 318.03 254.53 317.88 257.51 317.95C257.71 317.95 257.91 317.97 258.11 317.98C253.33 318.01 248.57 318.92 244.17 320.93ZM229.9 324.08C227.01 324.94 224.1 325.67 221.1 326.01C219.92 326.14 218.71 326.14 217.53 326.1C216.9 326.08 215.72 326.08 214.7 325.94C213.74 325.52 212.83 325.02 211.92 324.5C213.05 324.72 214.18 324.88 215.32 324.93C220.37 325.17 225.88 324.11 230.88 323.46C231.65 323.36 232.41 323.25 233.16 323.12C232.07 323.44 230.98 323.75 229.9 324.08ZM258.81 253.45C256.9 252.38 254.83 251.55 252.94 250.92C248.64 249.48 243.77 249.55 239.33 250.21C229.41 251.7 223.48 260.44 217.17 267.43C214.17 270.74 211.86 274.22 210.68 278.55C210.08 280.77 209.73 283.04 209.05 285.23C208.21 287.93 206.69 290.4 205.23 292.79C202.55 297.17 200.42 301.54 198.4 306.26C197.35 308.72 196.86 311.2 197.47 313.68C193.11 306.45 197.39 297.09 201.82 290.91C206.34 284.61 208.78 277.4 210.71 269.95C212.01 264.93 213.41 260.65 218.06 257.79C221.66 255.57 225.63 254.08 229.19 251.75C235.88 247.36 243.75 245.39 251.13 248.08C253.87 249.48 256.43 251.32 258.81 253.45ZM269.8 319.45C269.8 319.43 269.81 319.41 269.8 319.39C269.85 319.42 269.9 319.44 269.95 319.46C269.89 319.45 269.84 319.45 269.8 319.45ZM260.32 317.34C255.42 316.79 250.91 317.29 246.32 318.95C246.61 318.81 246.9 318.67 247.19 318.54C249.69 317.39 252.5 316.79 255.21 316.45C260.19 315.82 264.88 316.99 269.3 319.13C266.46 317.93 263.44 317.69 260.32 317.34ZM256.9 314.82C254.95 314.85 253 315.15 251.09 315.65C253.1 313.91 254.92 311.81 256.52 309.25C259.56 304.39 260.71 298.74 263.9 293.94C266.81 289.55 268.45 285.73 268.87 280.42C269.26 275.4 269.81 270.51 268.7 265.55C268.25 263.55 267.31 261.75 266.11 260.1C268.74 262.46 270.83 265.18 272.21 268.56C273.84 272.56 273.97 277.07 274.04 281.33C274.11 285.52 274.06 289.77 273.3 293.9C272.48 298.36 269.72 301.75 266.92 305.16C264.56 308.02 262.71 310.93 261.25 314.36C261.15 314.6 261.04 314.84 260.94 315.08C259.54 314.87 258.17 314.8 256.9 314.82ZM266.91 264.5C268.76 269.39 267.32 275.21 266.74 280.2C266.1 285.74 263.8 289.77 260.76 294.3C258.24 298.04 257.19 302.6 255.07 306.56C250.96 314.24 244.45 318.61 236.72 320.37C239.2 318.97 241.56 317.23 243.98 315.54C246.68 313.66 249.14 311.6 251.01 308.85C253.41 305.34 254.8 301.34 256.87 297.65C258.78 294.26 261.29 291.49 262.71 287.81C263.97 284.57 264.72 281.12 265.08 277.67C265.46 274.02 264.84 270.56 264.36 266.96C264.1 264.98 263.73 262.85 263.93 260.85C263.99 260.31 264.02 259.84 263.98 259.39C265.15 260.96 266.19 262.6 266.91 264.5ZM194.55 288.22C197.93 279.5 202.52 270.92 206.6 262.51C207.52 260.63 208.67 259.25 209.98 258.15C208.75 259.61 207.8 261.26 206.97 263.07C204.4 268.73 203.63 275.04 201.34 280.81C199.18 286.24 194.86 290.79 193.82 296.59C193.41 298.88 193.43 301.21 193.3 303.52C192.39 298.27 192.79 292.78 194.55 288.22ZM202.98 323.17C203.15 323.52 203.33 323.89 203.48 324.29C204.12 325.99 203.06 328 202.51 329.58C202.2 330.48 201.94 331.75 201.84 333.07C201.31 329.86 201.58 326.55 202.98 323.17ZM281.79 267.7C282.41 269.19 282.31 271.29 282.47 272.64C282.75 274.98 282.93 277.33 283.14 279.67C283.56 284.35 283.7 289.15 282.52 293.74C281.4 298.09 279.08 302.02 277.64 306.26C276.18 310.56 275.91 315.27 273.89 319.36C271.74 323.71 266 324.22 261.87 325.54C257.74 326.86 254.46 329.9 250.22 331.04C246.11 332.15 241.54 331.49 237.35 331.31C235.32 331.22 233.32 331.09 231.33 330.92C232.3 330.71 233.25 330.45 234.18 330.16C236.09 330.07 237.99 329.88 239.91 329.62C244.25 329.02 249.01 328.34 252.95 326.32C255.62 324.95 257.48 323.1 258.96 320.82C260.14 320.56 261.32 320.33 262.51 320.12C262.73 320.08 262.95 320.05 263.17 320C265.76 319.58 268.21 320.14 270.79 320.1C270.97 320.1 271.05 319.97 271.06 319.84C271.13 319.76 271.15 319.62 271.06 319.52C268.81 317.03 265.26 315.72 261.74 315.16C262.37 313.62 263.02 312.08 263.83 310.62C265.11 308.31 266.92 306.3 268.59 304.26C271.13 301.17 273.17 298 274.06 294.05C275.06 289.59 274.9 284.84 274.9 280.3C274.9 272.02 272.92 263.76 265.94 258.88C268.66 260.43 271.84 261.43 274.55 262.71C277.39 264.06 279.81 265.69 281.79 267.7ZM264.43 258.01C264.37 257.94 264.31 257.87 264.24 257.79C264.34 257.87 264.45 257.94 264.56 258.02C264.51 258 264.47 258 264.43 258.01ZM262.37 255.26C261.71 252.88 262.41 247.22 262.31 245.95C262.28 245.63 262.24 245.32 262.2 245.01C262.5 245.16 262.82 245.28 263.17 245.39C266.04 246.31 268.84 246.55 271.59 247.95C276.31 250.35 276.32 255.34 278.41 259.38C277.78 259.02 277.12 258.68 276.42 258.42C271.85 256.71 267.03 256.56 262.37 255.26ZM258.29 240.97C258.92 243.25 259.35 245.54 259.63 247.65C258.11 245.22 255.75 243.73 252.73 242.62C247.77 240.79 242.2 240.43 237.09 239.03C232.47 237.77 227.97 236.06 223.11 236.19C218.53 236.32 214.7 238.99 211.42 241.92C207.58 245.34 203.92 249.28 201.91 254.07C200.02 258.57 199.63 263.52 198.14 268.14C196.57 272.99 192.93 276.8 191.23 281.62C189.96 285.22 189.9 289.19 190.89 292.86C190.69 297.07 190.93 301.61 191.94 305.85C190.45 304.13 189.28 302.43 188.4 300.12C187.33 297.3 187.05 294.21 186.78 291.23C186.25 285.19 185.78 278.72 188.82 273.28C191.48 268.52 193.6 264.23 194.74 258.86C195.38 255.81 196.08 252.89 197.67 250.17C199.2 247.56 201.48 245.38 203.61 243.26C208.15 238.75 213.53 236.7 219.37 234.45C222.17 233.37 224.91 232.17 227.95 232.11C230.46 232.06 232.99 233.02 235.33 233.79C239.58 235.18 243.64 235.4 248.06 235.73C251.52 235.98 254.65 237.04 257.17 239.49C257.72 239.99 258.04 240.47 258.29 240.97ZM193.61 311.39C193.7 311.44 193.79 311.47 193.87 311.49C194.3 312.43 194.79 313.33 195.34 314.19C192.41 311.91 189.67 309.34 187.66 306.25C189.37 308.32 191.36 310.1 193.61 311.39ZM207.1 340.87C206.9 338.69 206.89 336.49 207.38 334.37C207.64 333.24 207.95 332.17 208.15 331.11C208.42 331.97 208.61 332.89 208.65 333.91C208.74 336.34 207.73 338.57 207.1 340.87ZM208.99 326.19C208.98 326.17 208.96 326.15 208.95 326.12C210.08 326.87 211.25 327.55 212.5 328.15C212.84 328.41 213.22 328.64 213.63 328.86C215.38 329.91 217.23 330.8 219.11 331.63C219.32 331.93 219.52 332.22 219.72 332.48C220.11 332.99 220.53 333.46 220.97 333.91C219.7 333.18 218.44 332.45 217.17 331.76C214.35 330.23 211.56 328.33 208.99 326.19ZM223.71 335.4C222.94 334.45 222.15 333.51 221.37 332.58C221.7 332.71 222.02 332.85 222.35 332.98C225.01 334.07 227.72 336.01 230.36 337.83C230.3 337.82 230.25 337.81 230.2 337.8C227.9 337.36 225.77 336.46 223.71 335.4ZM239.84 342.91C238.03 340.48 235.69 339.25 233.05 338.48C231.66 337.22 230.04 336.09 228.41 335.02C230.35 335.95 232.32 336.82 234.39 337.51C234.79 337.71 235.2 337.9 235.65 338.1C238.51 339.36 240.22 341.76 242.17 344.06C243.85 346.05 245.98 347.39 248.27 348.46C244.7 347.66 242.44 346.4 239.84 342.91ZM249.11 346.45C249.63 347.29 250.24 348.02 250.9 348.68C249.57 347.88 248.18 347.2 246.8 346.46C244.42 345.18 242.99 342.62 241.31 340.65C240.71 339.94 240.07 339.33 239.39 338.79C240.53 339.06 241.69 339.42 242.85 339.78C245.24 341.83 247.35 343.64 249.11 346.45ZM291.05 290.29C290.75 294.42 291.16 299.15 289.22 302.87C287.52 306.12 284.84 308.81 282.89 311.92C280.91 315.1 280.26 319.16 278.75 322.56C276.64 327.32 272.17 329.2 268.04 331.62C264.03 333.13 259.94 334.4 256.27 336.69C252.06 339.32 247.14 338.37 242.39 337.3C243.88 337.18 245.38 336.92 246.9 336.46C252.54 334.77 257.56 331.68 263.36 330.35C268.02 329.28 273.25 327.94 276.14 323.76C279.65 318.66 279.86 312.19 282.4 306.64C284.69 301.65 288.3 297.55 289.61 292.1C290.78 287.2 289.62 281.76 288.12 277.08C286.55 272.17 284.44 267.8 280.1 264.76C275.38 261.46 269.59 260.07 264.77 257.04C266.45 257.59 268.18 257.93 269.97 258.3C274.84 259.32 278.66 261.27 282.21 264.76C286.57 269.04 290.91 271 291.98 277.7C292.65 281.88 291.35 286.12 291.05 290.29ZM285.26 264.91C283.62 263.49 282.07 261.96 280.36 260.67C279.52 258.68 278.5 256.89 277.97 254.7C277.45 252.53 276.51 250.86 274.97 249.25C273.53 247.74 271.43 246.59 269.46 245.95C267.05 245.16 264.25 245.1 262.03 243.9C261.74 242.36 261.28 240.85 260.71 239.39C264.15 241.52 268.71 241.62 272.39 243.2C275.07 244.36 277.48 245.98 279.64 247.93C280.09 248.34 280.56 248.77 281 249.24C283.38 254.13 283.38 259.88 285.26 264.91ZM262.46 236.57C268.34 238.43 272.96 240.35 277.57 244.59C278.11 245.09 278.59 245.61 279.03 246.15C278.28 245.58 277.49 245.04 276.68 244.53C274.2 242.95 271.36 241.68 268.5 240.98C265.52 240.25 262.86 239.74 260.23 238.26C259.92 237.55 259.6 236.84 259.25 236.14C259.08 235.8 258.9 235.46 258.72 235.13C259.88 235.72 261.15 236.16 262.46 236.57ZM254.7 232.76C249.88 230.06 242.26 230.43 237.75 229.14C234.97 228.35 232.56 227.2 229.91 226.68C233.1 225.96 236.34 225.46 239.55 225.48C243.58 225.93 247.05 227.46 251.19 228.94C252.55 230 253.71 231.3 254.7 232.76ZM185.38 248.96C190.86 242.89 195.63 235.1 203.37 231.81C207.84 229.91 212.82 230 217.66 229.46C216.71 229.97 215.78 230.5 214.86 231C210.26 233.52 205.32 235.18 200.55 237.32C196.45 239.16 194.42 242.22 192.33 246.06C190.88 248.73 189.44 251.3 187.48 253.65C185.77 255.7 183.85 257.57 182.19 259.67C181.3 260.79 180.54 261.96 180.05 263.17C179.78 258.16 180.97 253.85 185.38 248.96ZM180.42 266.58C180.25 262.9 182.9 260.05 185.35 257.34C188.21 254.17 190.61 251.16 192.63 247.38C193.71 245.37 194.73 243.3 196.14 241.49C197.51 239.73 199.61 238.66 201.6 237.76C205.29 236.1 209.11 234.75 212.77 232.99C215.35 231.75 217.8 230.28 220.38 229.06C221.11 228.93 221.83 228.77 222.55 228.57C224.24 228.11 225.96 227.63 227.7 227.19C230.17 227.28 232.53 228.08 235.06 229C238.84 230.39 242.52 230.7 246.48 231.2C249.92 231.63 253.42 232.6 255.93 234.83C256.6 236.11 257.17 237.47 257.65 238.86C257.24 238.44 256.81 238.05 256.37 237.67C254.57 236.13 252.08 235.47 249.8 235.09C247.1 234.64 244.33 234.75 241.61 234.45C238.76 234.13 236.07 233.07 233.35 232.22C227.81 230.49 223.5 231.97 218.26 233.98C215.46 235.06 212.66 235.96 210 237.38C207.12 238.92 204.59 241.06 202.28 243.35C197.96 247.62 195.4 251.77 194.08 257.7C193.29 261.26 192.41 264.52 190.87 267.84C189.52 270.75 187.54 273.29 186.4 276.3C185.42 278.89 185.58 281.93 185.61 284.63C185.65 287.78 185.8 290.93 186.15 294.07C186.46 296.93 187.09 299.8 188.31 302.33C185.68 298.79 183.66 295.02 183 289.87C182.19 283.53 182.58 277.26 181.24 270.96C180.91 269.43 180.63 267.97 180.42 266.58ZM176.7 285.99C175.44 282.81 176.28 279.28 176.53 275.99C176.74 273.31 176.13 270.84 175.19 268.46C176.54 271.06 177.55 273.84 177.9 276.99C178.17 279.38 177.66 281.71 178.11 284.09C178.61 286.74 179.28 289.39 180.37 291.86C180.28 291.78 180.19 291.69 180.09 291.61C178.8 289.85 177.54 288.11 176.7 285.99ZM178.6 270.95C179.7 272.72 180.43 275 180.8 277.41C180.88 279.67 180.84 281.94 180.84 284.2C180.77 284.64 180.7 285.07 180.6 285.48C180.37 284.82 180.14 284.16 179.95 283.5C178.8 279.56 179.27 275.62 177.82 271.71C177.29 270.28 176.69 268.75 176.01 267.2C176.9 268.43 177.79 269.66 178.6 270.95ZM173.22 269.64C172.72 267.18 171.98 264.3 170.89 261.61C171.48 262.47 172.07 263.33 172.64 264.19C173.78 267.02 174.86 269.88 175.3 272.9C175.74 275.93 175.03 279.02 174.91 282.05C174.89 282.54 174.93 283.03 174.97 283.51C174.45 281.95 174.16 280.31 174.16 278.32C174.17 275.57 173.77 272.35 173.22 269.64ZM185.84 303.77C185.94 303.92 186.05 304.07 186.15 304.22C186.89 306.83 188.71 309.01 190.53 310.98C191.54 312.08 192.6 313.23 193.73 314.29C189.6 311.69 187.28 308.37 185.84 303.77ZM191.2 317.74C194.37 317.56 197.47 318.7 200.34 320.12C199.39 320.41 198.45 320.74 197.42 320.84C194.33 321.15 191.61 320 188.66 319.42C187.5 319.19 186.28 319.19 185.09 319.4C187.02 318.49 188.92 317.88 191.2 317.74ZM194.39 325.55C192.63 325.85 190.71 325.94 188.93 325.78C185.99 325.53 183.92 324.12 181.5 322.7C183.16 323.14 184.88 323.19 186.56 323.67C188.41 324.2 190.19 324.73 192.11 324.88C194.71 325.08 197.99 324.29 200.2 322.6C200.26 322.59 200.32 322.58 200.37 322.57C198.68 324.02 196.72 325.16 194.39 325.55ZM198.57 327.29C197.69 328.88 196.94 330.55 196.15 332.15C195.96 332.53 195.76 332.91 195.57 333.29C196.28 331.41 196.98 329.51 197.69 327.61C197.98 327.51 198.28 327.4 198.57 327.29ZM192.98 339.77C194.06 338.44 194.92 336.3 195.68 335.05C197.04 332.79 198.74 330.39 199.96 327.89C199.54 330.79 198.11 333.5 196.57 336.12C195.13 338.24 193.25 340.26 192.38 342.63C190.87 346.72 189.33 349.75 186.5 353.05C187.48 350.92 188.57 348.85 189.63 346.86C190.87 344.54 191.96 342.17 192.98 339.77ZM183.74 371.4C183.13 369.22 182.95 367.06 183.08 364.92C183.42 368.24 184.36 371.72 185.21 374.38C186.3 377.76 187.56 381.03 189.03 384.27C190.18 386.79 190.15 389.19 189.97 391.69C188.49 384.68 185.67 378.25 183.74 371.4ZM174.63 374.85C173 372.52 171.32 370.23 169.69 367.91C168.92 366.12 168.25 364.41 167.78 363.16C169.68 366.5 171.67 369.81 173.67 373.19C174 373.73 174.31 374.29 174.63 374.85ZM158.55 344.05C158.51 343.98 158.47 343.91 158.42 343.84C153.98 336.64 152.3 330.44 152.82 321.96C152.86 321.4 152.89 320.84 152.93 320.27C153.7 326 154.84 331.69 156.37 337.3C157.01 339.62 157.74 341.86 158.55 344.05ZM153.5 282.93C154.44 277.21 157.52 271.63 159.37 266.16C161.15 260.91 161.49 255.7 161.84 250.23C162.21 244.32 163.42 238.5 163.75 232.59C163.9 238.35 163.83 244.15 163.34 249.87C163.22 250.46 163.1 251.05 162.98 251.64C162.73 252.92 162.7 254.23 162.69 255.54C162.38 257.73 161.99 259.9 161.51 262.04C160.1 268.28 157.17 274.11 155.03 280.11C154.32 282.11 153.77 284.15 153.33 286.21C153.33 285.75 153.32 285.28 153.3 284.82C153.34 284.16 153.4 283.53 153.5 282.93ZM153.01 279.22C153.03 274.9 154.75 270.62 156.24 266.68C157.51 263.33 159.07 259.64 160.18 255.94C159.72 259.29 159.09 262.61 158.08 265.86C156.66 270.41 154.54 274.71 153.01 279.22ZM163.19 219.99C163.35 222.9 163.51 225.86 163.62 228.83C163.54 227.64 163.12 226.45 162.93 225.27C162.59 223.24 162.4 221.47 162.43 219.6C162.44 219.56 162.45 219.53 162.45 219.49C162.45 219.34 162.45 219.2 162.44 219.05C162.47 218.26 162.54 217.45 162.66 216.59C162.79 215.61 162.87 214.63 162.94 213.64C162.98 215.73 163.07 217.85 163.19 219.99ZM183.51 168.56C185.3 166.29 186.65 163.74 187.72 161.04C188.64 159.59 189.49 158.09 190.1 156.37C191.63 152.1 193.71 148.14 194.83 143.75C192.81 154 188.93 163.8 182.82 172.88C181.43 174.49 180 176.08 178.58 177.67C180.14 175.03 181.42 172.29 182.74 169.52C183 169.19 183.26 168.88 183.51 168.56ZM189.67 120.98C187.2 122.41 184.78 123.13 182.68 124.94C183.68 123.42 185.08 121.81 185.86 121.2C187.44 119.97 190.19 119.59 192.06 118.89C192.15 118.86 192.23 118.81 192.31 118.78C191.59 119.6 190.77 120.35 189.67 120.98ZM187.67 117.49C188.85 117.05 190.1 117.03 191.33 116.99C191.6 117.05 191.88 117.09 192.16 117.12C191.94 117.29 191.72 117.46 191.48 117.63C189.64 118.85 187.17 119.09 185.23 120.19C184.08 120.84 182.84 122.28 182.02 123.8C182.83 120.96 184.48 118.69 187.67 117.49ZM168.54 128.86C168.63 129.54 168.53 130.17 168.34 130.83C168.31 130.93 168.29 131.01 168.26 131.1C167.75 130.88 167.22 130.7 166.51 130.59C166.52 130.55 166.54 130.51 166.54 130.47C166.51 130.07 166.86 129.56 166.93 129.14C167.02 128.57 167.06 127.99 167.09 127.42C167.1 127.13 167.1 126.84 167.07 126.55C167.28 126.77 167.51 126.97 167.75 127.16C167.77 127.18 168.03 127.5 168.39 127.98C168.46 128.29 168.51 128.6 168.54 128.86ZM156.84 113.52C154.02 116.23 150.95 115.95 147.74 115.52C150.17 115.32 152.62 114.67 154.55 113.61C156.39 112.59 158.06 111.45 159.87 110.49C158.81 111.41 157.91 112.5 156.84 113.52ZM143.41 115.31C143.75 115.37 144.08 115.44 144.44 115.48C144.45 115.59 144.5 115.7 144.62 115.74C144.15 115.61 143.69 115.47 143.24 115.33C143.3 115.32 143.36 115.31 143.41 115.31ZM144.85 103.21C144.7 102.97 144.54 102.73 144.38 102.49C144.65 102.71 144.92 102.92 145.19 103.11C145.07 103.08 144.94 103.12 144.85 103.21ZM145.38 103.26C146.9 104.34 148.48 105.07 150.91 105.17C153.65 105.28 156.37 104.35 159.1 104.94C159.13 104.95 159.17 104.96 159.2 104.97C158.92 105.01 158.64 105.05 158.37 105.1C156.05 105.56 154.03 106.62 151.64 106.81C148.94 107.02 146.95 105.14 145.38 103.26ZM184.52 2.72C186.43 2.46 188.32 2.53999 189.99 3.27999C191.69 4.03999 193.08 4.64 194.82 4.87C194.36 5.1 193.91 5.32 193.46 5.4C190.17 5.94 186.56 4.74 183.21 4.93C180.13 5.1 177.74 6.93 175.81 9.18C174.06 8.92 172.28 8.77 170.5 8.75C174.85 6.89 179.8 3.67 184.52 2.72ZM233.93 17.72C239.61 22.21 241.2 28.6 243.48 34.82C242.26 33.53 241.35 32.4 240.74 30.61C239.86 28.01 238.54 25.98 236.93 23.76C235.22 21.4 233.27 20.19 230.94 18.51C228.83 16.98 226.7 15.49 224.44 14.27C224.33 14.21 224.23 14.16 224.12 14.11C222.05 13.03 219.86 12.18 217.44 11.77C214.88 11.33 212.16 11.38 209.57 11.14C208.08 11.01 206.8 11.06 205.54 11.27C205.76 11.16 205.99 11.05 206.21 10.94C208.88 9.65 211.54 8.86999 214.19 8.58999C221.35 9.91999 228.21 13.21 233.93 17.72ZM231.67 22.94C233.72 26.6 234.01 31.05 235.13 35.02C236.13 38.54 238.1 41.29 240.12 44.28C242.64 48.02 243.19 52.2 243.41 56.6C243.81 64.72 245.37 73.12 243.87 81.18C243.1 85.32 241.59 89.26 239.7 93.01C238.6 95.19 237.3 97.32 235.61 99.09C234.01 100.76 231.95 101.61 229.83 102.36C232.03 100.7 233.95 98.71 235.57 96.36C238.7 91.81 239.27 86.26 239.58 80.9C239.88 75.5 240.77 69.68 239.38 64.38C238.93 62.69 238.07 61.11 237.14 59.59C238.33 57.12 239.86 54.77 241.24 52.53C241.35 52.36 241.07 52.16 240.96 52.33C240.27 53.26 239.61 54.21 238.98 55.17C238.07 56.14 237.17 57.11 236.3 58.09C236.07 57.76 235.73 57.32 235.6 57.11C233.79 54.08 232.87 50.92 232.5 47.42C231.92 41.92 232.38 36.63 230.54 31.3C228.78 26.19 224.79 22.09 220.35 19.17C214.33 15.22 206.54 13.5 199.24 14.39C200.63 13.7 202.01 13.02 203.4 12.33C207.96 11.45 212.64 11.97 217.28 12.54C220.72 12.96 223.75 14.5 226.58 16.34C228.66 18.28 230.42 20.71 231.67 22.94ZM232.26 108.35C229.54 108.72 227.03 108.88 224.34 107.87C223.76 107.65 223.18 107.51 222.61 107.41C223.02 107.36 223.44 107.33 223.88 107.34C226.73 107.43 229.92 107.53 232.77 107.27C233.63 107.19 234.47 106.99 235.28 106.69C234.31 107.33 233.3 107.88 232.26 108.35ZM228.45 117.67C226.11 116.46 223.57 115.78 220.45 115.77C215.01 115.76 210.22 117.87 205.46 117.11C205.83 117.05 206.17 117 206.46 116.96C209.05 116.62 211.47 115.95 213.87 114.92C216.59 113.74 219.19 113.84 221.95 114.17C224.22 114.99 226.38 116.24 228.45 117.67ZM227.08 119.73C223.89 118.75 220.39 118.52 217.1 118.39C216.49 118.36 215.9 118.37 215.32 118.38C217.01 117.95 218.71 117.56 220.5 117.37C224.63 116.94 227.95 118.7 231.28 120.62C229.94 120.17 228.54 119.88 227.08 119.73ZM167.37 120.44C167.34 120.52 167.33 120.6 167.31 120.68C167.1 118.95 167.69 117.41 170.11 116.36C172 115.54 174.26 115.2 176.42 114.97C174.5 116.15 172 115.9 170.05 117.16C169 117.85 167.76 119.2 167.37 120.44ZM177.02 9.37C178.29 8.22 179.52 7.09999 181.21 6.44999C182.82 5.82999 184.69 5.97 186.37 6.07C189.05 6.23 192.19 7.1 194.79 6.19C196.47 5.6 196.92 5.64 198.56 6.23C200.15 6.81 201.62 6.88999 203.27 7.12999C204.43 7.28999 205.49 7.4 206.55 7.68C205.63 8.15 204.73 8.67 203.85 9.21C202.16 8.34 200.8 8 198.4 8.41C196.8 8.68 195.21 9.00999 193.58 8.76999C192.13 8.54999 190.76 7.89 189.33 7.58C187.25 7.13 185.24 7.45 183.37 8.4C182.81 8.68 181.47 9.48 181.03 10.29H181.02C179.72 9.92 178.38 9.61 177.02 9.37ZM208.18 6.93C207.81 6.77 207.44 6.6 207.06 6.47C205.22 5.83 203.02 5.97 201.1 5.75C200.14 5.64 199.26 5.28 198.38 4.91C201.32 4.73 204.47 4.31999 207.12 5.34999C207.94 5.66999 208.58 6.1 209.19 6.54C208.85 6.66 208.52 6.79 208.18 6.93ZM192.61 9.73999C194.55 10.32 196.49 9.9 198.44 9.58C199.75 9.37 200.88 9.29 202.2 9.54C202.47 9.59 202.7 9.68 202.93 9.8C202.59 10.02 202.25 10.25 201.92 10.48C199.22 12.33 196.56 14.01 193.8 15.6C192.35 16.08 190.94 16.66 189.6 17.38C188.85 16.43 189.09 15.07 188.1 13.97C186.36 12.04 184.27 11.24 181.89 10.54C185.25 8 188.68 8.56999 192.61 9.73999ZM227.13 103.44C226 103.69 224.87 103.92 223.76 104.16C226.05 102.18 228.11 99.96 229.72 97.53C233.6 91.68 234.42 85.96 234.57 79.07C234.68 74.24 234.35 69.28 235.36 64.53C235.64 63.2 236.1 61.9 236.66 60.63C236.83 60.92 236.99 61.21 237.16 61.5C239.92 66.38 239.28 71.86 238.97 77.23C238.64 82.88 238.66 88.6 236.18 93.82C234.27 97.85 230.91 101.07 227.13 103.44ZM185.95 20.7C186.75 20.22 187.6 20 188.41 19.71C188.6 19.68 188.79 19.67 188.99 19.64C188.55 20 188.13 20.42 187.62 20.89C185.86 22.52 183.92 23.94 182.21 25.63C179.27 28.53 177.88 32.75 176.71 36.61C174.21 44.86 172.7 53.83 176.18 61.97C177.13 64.19 178.44 66.06 178.82 68.5C179.22 71.07 178.86 73.89 178.55 76.44C178.02 80.76 176.57 84.92 176.61 89.3C176.65 93.16 178.69 96.14 180.81 99.18C182.25 101.25 183.21 103.64 184.62 105.74C185.43 106.95 186.15 108.14 186.81 109.36C186.46 109.03 186.07 108.7 185.67 108.39C185.03 107.84 184.36 107.3 183.62 106.79C183.55 106.74 183.48 106.7 183.42 106.66C183.41 106.65 183.41 106.65 183.4 106.65C182.44 105.87 181.4 105.3 180.35 104.74C179.85 104.45 179.35 104.16 178.86 103.87C172.89 98.1 171.28 90.6 171.41 82.34C171.47 78.74 171.05 75.34 169.64 72.01C167.85 67.79 165.42 63.83 164.78 59.21C164.25 55.39 165.35 51.47 165.75 47.68C165.99 45.4 166.29 43.09 167.21 40.96C168.1 38.92 169.81 37.22 171.12 35.43C172.44 33.63 173.33 31.59 174.82 29.9C176.32 28.2 178.27 26.94 179.98 25.46C181.92 23.78 183.75 22.03 185.95 20.7ZM198.39 112.92C197.02 111.02 196.22 109.5 196.77 106.52C197.12 104.64 197.85 102.79 197.98 100.87C198.88 98.12 198.84 95.44 199.46 92.52C200.21 89.05 201 86 200.78 82.42C200.59 79.21 199.33 76.52 198.18 73.57C197.51 71.84 196.98 70.05 196.27 68.33C195.41 66.24 194.56 64.55 194.52 62.22C194.46 58.28 194.39 54.32 194.35 50.37C194.33 48.52 193.91 46.57 193.77 44.71C193.62 42.64 193.72 40.47 193.75 38.4C193.83 34.16 194.66 30.29 194.17 26C193.96 24.15 193.67 22.03 192.88 20.23C198.86 26.27 203.85 34.13 206.18 42.26C207.3 46.19 207.35 50.25 208.65 54.16C210.03 58.32 212.44 62.08 213.93 66.21C216.95 74.57 217.65 84.24 213.16 92.12C211.06 95.82 208.94 99.46 206.93 103.21C204.81 107.2 201.18 109.58 198.39 112.92ZM185.67 23.83C187.02 22.66 188.96 20.34 190.69 19.5C190.99 19.48 191.3 19.47 191.6 19.46C195.03 25.76 192.56 33.57 192.74 40.32C192.94 47.63 193.77 54.93 193.49 62.26C193.38 65.23 195 67.71 195.96 70.41C197.1 73.63 198.73 76.78 199.48 80.11C200.34 83.98 199.64 87.7 198.67 91.46C198.19 93.32 197.95 95.19 197.72 97.07C197.26 94.64 196.37 92.32 195.57 89.97C195.56 89.9 195.55 89.83 195.55 89.77C195.54 89.69 195.5 89.64 195.45 89.61C194.89 87.93 194.4 86.23 194.16 84.46C194.15 84.41 194.11 84.38 194.07 84.37C194.04 84.21 194.02 84.05 193.99 83.9C193.94 83.67 193.58 83.74 193.6 83.97C193.94 87.74 193.47 92.22 192.08 95.72C190.77 99.03 188.33 101.27 187.8 104.94C187.64 106.05 187.62 107.13 187.72 108.17C186.64 106.33 185.26 104.62 184.27 102.76C182.2 98.82 178.79 95.26 178.1 90.76C177.48 86.72 178.97 82.57 179.62 78.62C180.22 74.96 180.53 71.15 179.87 67.49C179.53 65.63 178.36 64.04 177.48 62.41C176.41 60.44 175.74 58.24 175.26 56.06C174.29 51.62 175.52 46.7 176.36 42.32C177.23 37.8 178.6 33.38 180.69 29.27C181.81 27.06 183.85 25.41 185.67 23.83ZM195.82 99.98C195.15 101.98 194.59 104.01 193.83 106C193.35 107.25 192.46 108.76 192.08 110.26C191.91 109.01 191.74 107.77 191.97 106.44C192.36 104.16 193.88 102.28 194.9 100.28C195.36 99.39 195.64 98.48 195.81 97.56C195.86 98.35 195.87 99.16 195.82 99.98ZM195.09 92.44C195.1 93.77 195.12 95.1 194.96 96.42C194.63 99.24 192.77 101.4 191.53 103.83C190.54 105.75 190.25 107.86 190.58 109.88C190.25 108.83 190.1 107.7 189.99 106.63C189.6 102.71 191.95 99.77 193.42 96.43C194.29 94.47 194.62 92.25 194.63 90.02C194.78 90.82 194.94 91.63 195.09 92.44ZM194 108.71C194.08 108.41 194.18 108.11 194.3 107.81C194.26 108.06 194.22 108.3 194.19 108.55C194.13 108.6 194.06 108.65 194 108.71ZM164.98 91.46C165.46 93.33 165.98 95.18 166.15 97.19C166.31 99.01 166.54 100.95 167.38 102.6C167.47 102.78 167.57 102.96 167.66 103.13C167.21 102.91 166.78 102.67 166.37 102.42C165.05 100.81 164.12 98.74 163.76 95.87C163.44 93.38 163.37 91.06 162.74 88.86C163.53 89.6 164.28 90.5 164.98 91.46ZM170.57 104.42C169.24 102.88 168.28 101.03 167.86 98.54C167.59 96.94 167.23 95.51 166.81 94.12C167.15 94.62 167.48 95.12 167.79 95.57C167.8 95.59 167.82 95.61 167.84 95.64C168.17 96.47 168.51 97.29 168.89 98.08C169.84 100.07 170.83 101.74 172.23 103.17C172.72 104.17 173.26 105.13 173.92 106.03C172.82 105.44 171.71 104.92 170.57 104.42ZM175.9 105.89C176.09 106 176.28 106.1 176.47 106.2C176.48 106.21 176.48 106.21 176.48 106.22C176.65 106.45 176.85 106.66 177.05 106.87C176.63 106.57 176.25 106.24 175.9 105.89ZM225.36 98.14C229.25 92.31 228.71 86.56 228.99 80.26C229.14 82.01 229.35 83.76 229.56 85.53C230.37 92.38 226.98 97.63 222.5 102.06C222.38 102.16 222.26 102.27 222.14 102.37C223.3 101.05 224.36 99.64 225.36 98.14ZM231.6 85.39C231.56 87.09 231.23 88.64 230.73 90.11C231.73 83.59 229.29 76.47 229.88 69.85C230.13 69.09 230.44 68.34 230.8 67.61C230.52 69.56 230.57 71.59 230.82 73.51C231.28 77.1 231.69 81.83 231.6 85.39ZM228.8 77.12C228.01 81.88 228.69 86.73 227.59 91.46C226.31 96.93 221.18 103.06 215.81 106.65C215.67 106.71 215.54 106.77 215.4 106.83C218.8 103.85 221.75 100.31 224.22 96.42C226.96 92.1 227.68 87.37 227.9 82.52C228.3 79.99 228.45 77.41 228.8 74.88C228.77 75.63 228.77 76.38 228.8 77.12ZM217.33 32.65C220.15 37.54 221.49 43.2 223.78 48.33C224.61 50.17 225.66 51.84 226.76 53.53C229.09 57.11 228.61 58.86 227.33 62.53C226.89 63.79 226.57 65.06 226.33 66.33C225.56 63.67 224.8 61.01 223.79 58.43C223.35 57.3 222.71 56.37 221.98 55.4C220.72 53.73 220.27 51.99 219.75 50C219.39 48.62 218.57 47.35 217.9 46.1C216.95 44.33 216.59 42.16 216.09 40.22C215.46 37.74 214.69 35.14 212.98 33.17C212.19 32.26 210.77 31.93 209.72 31.47C207.75 30.6 206.8 27.95 205.56 26.32C203.77 23.97 202.3 22.02 199.72 20.61C206.83 22.26 212.94 25 217.33 32.65ZM194.21 19.52C194.84 19.71 195.58 19.98 195.98 20.05C197.85 20.35 199.74 21.43 201.26 22.52C203.78 24.35 205.44 27.84 207.19 30.36C208.51 32.27 210.67 32.46 212.37 33.84C214.66 35.69 215.22 40.45 215.93 43.13C216.61 45.69 218.04 47.79 218.91 50.27C219.3 51.39 219.31 52.64 219.87 53.7C220.53 54.98 221.42 56.06 222.23 57.24C224.01 59.79 224.62 63.59 225.5 66.53C225.68 67.15 225.85 67.76 226.02 68.36C225.09 75.98 226.61 83.86 224.29 91.38C221.03 101.99 210.41 109.39 200.42 113.09C200.02 113.19 199.63 113.29 199.24 113.39C202.24 110.7 205.26 107.89 207.39 104.46C209.76 100.63 211.69 96.47 214 92.58C218.5 84.96 217.75 75.96 215.39 67.73C214.08 63.18 211.64 59.14 209.86 54.78C208.18 50.67 208.02 46.28 207.05 42C206.12 37.88 203.84 33.73 201.64 30.17C199.21 26.24 196.54 22.4 192.97 19.44C193.23 19.44 193.49 19.44 193.75 19.45C193.9 19.47 194.06 19.49 194.21 19.52ZM179.19 24.73C177.49 26.25 175.56 27.47 174.03 29.17C172.34 31.05 171.3 33.37 169.81 35.4C168.75 36.84 167.56 38.16 166.58 39.66C165.44 41.42 165.1 43.59 164.8 45.63C164.18 49.81 163.31 54.23 163.51 58.46C163.7 62.5 165.61 66.25 167.32 69.83C169.74 74.91 170.3 79.47 170.14 85.04C170.01 89.76 171.13 95.15 173.65 99.53C172.66 98.39 171.74 97.17 170.88 95.98C170.42 95.1 169.99 94.19 169.57 93.22C168.77 91.36 167.72 89.61 166.65 87.88C166.67 87.77 166.67 87.66 166.59 87.56C166.4 87.32 166.21 87.09 166.02 86.86C164.83 84.94 163.68 83.02 162.87 80.96C162.07 78.93 162.83 75.61 162.95 73.48C163.11 70.59 163.04 67.74 162.68 64.87C162.51 63.49 162.16 61.96 161.54 60.7C159.47 56.54 158.69 53.89 159.63 49.3C160.9 43.09 165.21 38.27 168.99 33.44C172.89 28.46 176.84 23.36 182.92 21.05C183.3 20.9 183.69 20.77 184.08 20.65C182.3 21.79 180.74 23.34 179.19 24.73ZM161.73 88C162.71 91.64 162.27 95.6 163.1 99.32C161.22 96.72 160.36 93.44 159.9 89.95C159.7 88.41 159.5 86.96 159.2 85.6C159.92 86.51 160.79 87.26 161.73 88ZM233.78 65.86C232.71 69.52 232.69 73.37 232.67 77.23C232.04 72.6 231.32 68.03 233.1 63.85C234.18 62.31 235.34 60.82 236.48 59.31C235.39 61.39 234.46 63.55 233.78 65.86ZM234.23 60.48C233.47 61.2 232.85 62 232.35 62.88C230.69 65.13 229.27 67.47 228.25 69.98C228.57 66.38 229.32 62.84 231.11 59.51C233.13 55.76 229.54 51.45 227.79 48.34C224.39 42.3 222.54 35.57 218.86 29.66C213.62 21.25 203.16 18.84 193.68 18.32C193.12 18.28 192.56 18.25 192 18.25C191.87 18.25 191.75 18.24 191.62 18.24C191.57 18.19 191.52 18.13 191.47 18.07C192.88 17.44 194.27 16.78 195.66 16.11C198.25 15.44 200.89 15.1 203.76 15.19C209.34 15.35 215.11 17.14 219.9 19.94C225.21 23.04 228.9 28.12 230.43 34.02C231.71 38.94 231.08 44.1 231.74 49.1C232.21 52.63 233.83 55.97 235.52 58.93C235.1 59.44 234.66 59.96 234.23 60.48ZM186.19 16.42C186.67 16.9 187.17 17.41 187.76 17.96C187.95 18.14 188.15 18.27 188.35 18.37C186.89 18.51 185.42 18.74 183.98 19.08C177.61 20.54 173.78 23.83 169.54 28.68C162.27 36.98 154.27 48.83 158.34 60.24C160.67 66.77 158.97 73.53 160.1 80.21C158.21 77.61 156.94 74.7 155.44 71.79C153.56 68.12 151.72 64.65 151.22 60.51C150.84 57.38 151.13 54.18 151.33 51.05C151.56 47.54 151.51 44.1 151.31 40.59C151.05 36.08 151.41 32.1 154.65 28.67C157.47 25.69 161.6 23.76 164.84 21.21C167.95 18.75 170.34 16.22 174.32 15.18C177.7 14.3 182.89 14.46 186.19 16.42ZM156.8 82.18C158.2 85.73 158.14 89.55 158.84 93.3C156.81 88.03 156.01 81.89 152.5 77.39C154.02 78.79 155.52 80.49 156.8 82.18ZM212.38 113.95C209.66 114.99 206.96 115.35 204.24 115.48C207.78 114.71 211.33 113.5 214.92 113.2C214.1 113.37 213.27 113.61 212.38 113.95ZM173.3 11.2C175.7 11.61 178.07 12.21 180.43 12.8C181.7 13.12 182.65 13.55 183.47 14.08C182.04 13.76 180.55 13.64 179.31 13.55C175.39 13.28 171.6 14.37 168.39 16.6C166.62 17.84 165.14 19.49 163.45 20.82C161.38 22.45 159.17 23.9 156.96 25.34C153.26 27.74 150.79 30.96 150.19 35.37C149.66 39.26 150.44 43.26 150.34 47.17C150.24 51.39 149.61 55.56 149.85 59.78C150.07 63.8 151.67 67.22 153.45 70.76C154.99 73.82 156.33 77.48 158.51 80.29C155.62 78.32 152.59 76.52 149.69 74.18C149.52 74.05 149.34 74.26 149.47 74.41C149.57 74.52 149.67 74.62 149.76 74.73C149.58 74.69 149.38 74.86 149.51 75.05C153.27 80.2 154.7 85.79 156.18 91.88C156.68 93.92 157.38 95.8 158.34 97.51C157.05 96.11 155.84 94.6 154.61 93.02C151.45 88.98 147.87 85.03 146.06 80.16C144.32 75.48 144.74 70.43 144.39 65.55C144.06 60.99 142.48 56.85 141.09 52.54C139.37 47.21 140.1 42.06 141.53 36.75C142.25 34.08 143.12 31.46 144.53 29.07C146.22 26.2 148.99 24.71 151.97 23.51C156.43 21.71 159.41 18.48 163.22 15.7C165.89 13.76 169.68 11.78 173.3 11.2ZM150.74 112.06C153.99 110.21 157.31 108.7 160.9 107.98C161.26 108 161.63 108.02 161.99 108.03C161.5 108.16 161.02 108.31 160.55 108.48C158.63 109.17 156.85 110.57 155.21 111.75C152.66 113.58 149.53 114.18 146.42 114.46C148.06 113.72 149.64 112.69 150.74 112.06ZM148.2 116.54C147.05 116.35 145.91 116.09 144.81 115.79C145.8 115.98 146.97 116.29 148.2 116.54ZM174.5 117.49C172.29 117.8 169.5 119.63 168.24 121.82C168.56 119.42 170.65 117.69 173.12 117.05C174.54 116.68 175.67 116.28 176.7 115.78C176.12 116.43 175.49 116.97 174.82 117.43C174.71 117.46 174.61 117.48 174.5 117.49ZM162.8 207.29C162.83 207.12 162.85 206.96 162.88 206.79C162.88 206.78 162.88 206.77 162.89 206.75C162.86 206.93 162.83 207.11 162.8 207.29ZM194.62 155.25C194.08 156.52 193.47 157.74 192.83 158.94C194.47 154.66 195.76 150.24 197.09 146.3C198.94 140.8 199.64 135.35 199.64 129.58C199.64 126.49 199.72 123.09 199.17 119.9C199.31 120.01 199.46 120.11 199.6 120.21C200.94 132.08 199.33 144.22 194.62 155.25ZM211.66 121.36C208 121.76 205.12 120.88 202.63 119.2C202.71 119.23 202.79 119.26 202.87 119.29C205.5 120.7 209.08 120.52 211.87 120.12C215.1 119.65 218.81 119.45 222.39 119.74C218.79 120.06 215.25 120.97 211.66 121.36ZM216.15 109.45C216.35 109.34 216.54 109.23 216.73 109.12C217.66 109.17 218.51 109 219.49 108.78C221.69 108.27 223.33 108.88 225.36 109.54C225.74 109.66 226.13 109.74 226.52 109.79C226.42 109.8 226.33 109.82 226.23 109.82C222.82 109.94 219.44 109.47 216.15 109.45ZM243.67 99.91C243.22 100.3 242.77 100.7 242.32 101.1C240.79 102.1 239.26 103.11 237.68 104.04C234.59 105.85 231.61 105.87 228.35 105.65C230.42 105.05 232.51 104.5 234.63 104.16C238.39 103.56 241.01 101.89 243.67 99.91ZM246.46 49.01C246.97 55.76 247.21 62.42 247.99 69.15C248.15 70.52 248.17 71.88 248.09 73.25C247.75 75.26 247.3 77.23 246.8 79.12C246.13 81.69 245.41 84.26 244.52 86.74C243.88 88.29 243.2 89.81 242.53 91.29C242.13 92.17 241.72 93 241.28 93.8C241.27 93.82 241.26 93.84 241.24 93.86C241.23 93.89 241.21 93.91 241.2 93.93C240 95.9 238.56 97.72 236.82 99.34C236.36 99.72 235.88 100.07 235.36 100.41C239.66 96.9 242.2 90.67 243.73 85.72C246.63 76.37 244.6 67.04 244.23 57.51C244.08 53.57 243.73 49.66 242 46.06C241 43.98 239.47 42.2 238.22 40.27C236.82 38.09 236.02 35.58 235.4 33.09C234.24 28.48 233.5 24.18 230.82 20.15C230.4 19.52 229.89 18.88 229.33 18.25C229.94 18.69 230.54 19.13 231.13 19.56C233.43 21.23 235.15 22.59 236.84 24.93C238.37 27.05 239.42 29.1 240.25 31.58C240.85 33.34 241.93 34.46 243.25 35.73C243.73 36.19 244.09 36.7 244.41 37.22C244.63 37.75 244.86 38.28 245.1 38.8C245.78 42.24 246.21 45.69 246.46 49.01ZM143.14 84.22C139.61 78.06 136.67 73.1 135.83 65.89C135.11 59.61 136.38 53.11 136.86 46.85C137.41 39.71 137.34 34.16 141.28 27.76C145.75 20.51 152.18 17.44 159.4 13.61C163.2 11.6 166.19 10.57 170.25 10.82C168.76 11.3 167.35 11.94 166.28 12.48C160.91 15.2 157.2 20.04 151.62 22.37C146.9 24.34 143.53 27.08 141.78 32.07C139.96 37.24 138.34 42.96 138.96 48.49C139.59 54.07 142.49 59.09 143.1 64.71C143.68 70.07 143.21 75.34 144.93 80.53C146.68 85.8 150.87 90.15 154.2 94.46C156.12 96.94 158.07 99.4 160.46 101.33C159.38 100.78 158.3 100.22 157.23 99.64C150.83 96.19 146.66 90.38 143.14 84.22ZM154.68 103.33C153.4 103.6 152.12 103.9 150.86 103.88C148.78 103.85 146.72 103.3 145.14 101.92C147.06 102.65 149.2 102.92 151.23 103.03C152.45 103.08 153.58 103.19 154.68 103.33ZM147.77 107.57C148.61 108.11 149.61 108.46 150.81 108.56C151.89 108.65 152.91 108.55 153.91 108.34C152.83 108.96 151.79 109.66 150.79 110.35C149.63 109.45 148.64 108.56 147.77 107.57ZM154.25 116.61C154.55 116.5 154.84 116.37 155.11 116.2C156.99 115.03 158.61 113.55 160.16 111.96C161.68 110.39 163.58 109.72 165.6 109.42C162.34 110.89 159.68 114.57 156.51 115.94C155.79 116.26 155.04 116.47 154.25 116.61ZM165.44 124.43C165.68 124.81 165.94 125.17 166.21 125.51C166.29 126.47 166.24 127.43 166.13 128.41C166.06 128.97 165.89 129.39 165.71 129.91C165.64 130.11 165.63 130.27 165.67 130.42C163.69 129.72 165.2 126.01 165.44 124.43ZM170.01 131.96C169.66 131.8 169.37 131.64 169.09 131.5C169.39 130.88 169.44 130.08 169.38 129.34C170.49 130.92 171.51 132.67 170.01 131.96ZM185.7 115.69C186.58 115.93 187.46 116.19 188.3 116.34C185.34 117.1 182.8 118.69 181.52 121.27C182.26 118.57 183.66 116.9 185.7 115.69ZM189.56 123.11C187.47 124.7 184.58 124.62 182.46 126.08C182.22 126.25 182.02 126.35 181.84 126.44C181.88 126.34 181.93 126.24 181.98 126.13C182.07 126.18 182.16 126.21 182.26 126.13C184.21 124.67 188.34 123.31 191.53 121.35C190.93 121.99 190.26 122.57 189.56 123.11ZM195.28 119.06C195.27 119.16 195.26 119.26 195.25 119.35C195.25 119.28 195.24 119.22 195.24 119.15C195.25 119.13 195.26 119.09 195.28 119.06ZM191.82 144.14C192.79 138.63 194.17 132.88 194.85 127.14C194.79 132.81 194.97 138.5 193.89 144.13C193.12 148.13 191.5 151.77 189.58 155.27C190.55 151.55 191.18 147.74 191.82 144.14ZM164.2 194.47C167.55 186.04 173.58 180 179.35 173.49C175.07 181.65 168.31 188.3 164.61 196.84C162.65 201.37 161.34 206.05 160.97 210.84C160.37 204.93 161.9 200.24 164.2 194.47ZM163.57 230.08C163.64 229.71 163.65 229.35 163.64 228.99C163.68 230.14 163.72 231.29 163.75 232.44C163.74 232.34 163.67 232.28 163.58 232.27C163.61 231.54 163.61 230.82 163.57 230.08ZM151.79 275.09C153.47 266.81 157.92 259 160.62 250.92C159.08 257.16 155.9 263.53 153.8 269.49C152.12 274.28 151.42 279.08 151.8 283.99C151.77 284.19 151.73 284.39 151.7 284.59C151.4 281.48 151.11 278.44 151.79 275.09ZM150.65 305.75C151.22 304.72 151.56 303.59 151.81 302.43C151.77 305.5 151.87 308.55 152.06 311.6C151.77 315.63 151.54 319.66 151.22 323.69C151.01 326.38 151.13 328.84 151.54 331.18C151.27 330.29 150.99 329.4 150.75 328.5C150.54 327.7 150.36 326.91 150.19 326.12C149.69 319.17 149.92 312.65 150.65 305.75ZM127.85 280.29C127.87 280.32 127.88 280.35 127.9 280.37C125.87 278.64 123.86 277.02 122.2 275.48C117.54 271.18 113.83 266.24 111.45 260.34C111.18 259.66 110.96 258.97 110.76 258.27C115.35 266.24 123.1 272.39 127.85 280.29ZM104.15 236.77C106.45 238.7 106.91 241.15 107.19 243.81C106.99 243.48 106.8 243.14 106.58 242.84C104.78 240.3 102.94 237.85 101.07 235.43C102.03 235.93 103.01 236.31 103.99 236.65C104.05 236.68 104.1 236.73 104.15 236.77ZM82.07 238.8C82.18 238.67 82.19 238.5 82.11 238.36C82.18 238.48 82.98 236.69 82.95 236.76C83.85 234.28 85.23 232.65 87.7 231.59C89.14 230.97 90.6 231.04 92.07 231.19C90.11 232.71 87.62 233.57 85.44 234.74C82.9 236.11 82.75 238.56 82.74 241.06C82.49 240.32 82.24 239.56 82.07 238.8C82.06 238.8 82.07 238.8 82.07 238.8ZM85.21 225.49C83.98 224.9 82.72 224.39 81.46 223.92C80.58 223.39 79.71 222.84 78.89 222.18C76.68 220.4 74.57 216.07 73.99 213.36C73.39 210.55 72.36 207.86 71.65 205.07C70.75 201.57 71.93 198.73 72.64 195.39C73.28 192.36 72.82 189.16 72.01 186.1C72.09 186.03 72.16 185.93 72.12 185.8C70.68 181.25 73.6 177.09 74.41 172.66C74.82 170.44 75.08 167.83 76 165.76C76.88 163.77 78.88 162.15 79.97 160.21C82.38 155.91 84.51 151.47 86.94 147.18C87.96 145.38 89.02 143.6 90.51 142.23C92.17 141.46 93.82 140.79 95.51 140.34C90.21 143.75 87.39 151.15 85.94 156.77C85.31 159.21 84.86 161.69 84.27 164.15C83.64 166.81 82.13 168.96 80.89 171.34C79.09 174.77 78.85 178.31 79.45 182.09C80.3 187.4 80.42 192.61 79.25 197.87C78.4 201.72 76.53 205.68 77.28 209.69C78.09 214.03 81.09 217.76 83.57 221.29C84.66 222.84 85.86 224.54 87.37 225.74C86.64 225.65 85.92 225.56 85.21 225.49ZM7.97 185.97C7.22 185.63 6.44999 185.34 5.64999 185.08C16.09 186.73 25.08 192.55 30.1 201.93C32.01 205.5 35.42 208.35 38.46 210.95C37.5 210.18 36.36 209.53 35.42 208.89C31.94 206.5 29.23 204.42 27.09 200.67C23.09 193.68 15.45 188.97 7.97 185.97ZM3.46 184.06C13.18 182.63 25.09 187.15 29.65 195.97C31.36 199.27 33.13 202.71 35.29 205.84C31.79 202.21 30.11 197.65 26.6 193.95C21.2 188.26 11.54 183.86 3.46 184.06ZM38.77 211.21C39.28 211.65 39.78 212.1 40.28 212.55C40.2 212.52 40.11 212.51 40.03 212.48C39.81 212.26 39.6 212.05 39.39 211.8C39.14 211.53 38.86 211.27 38.56 211.02C38.63 211.09 38.7 211.15 38.77 211.21ZM60.74 218.71C56.24 216.64 52.26 212.78 48.48 209.71C43.52 205.68 41.71 200.8 41.3 194.58C40.96 189.37 40.65 184.37 39.77 179.2C38.91 174.13 38.54 169.6 40.21 164.65C41.85 159.8 44.95 155.82 45.87 150.69C46.32 148.18 46.33 145.61 46.8 143.1C47.55 139.19 51.07 137.29 54.33 135.72C59.02 133.46 61.98 129.77 66.16 126.84C68.37 125.29 70.93 124.46 73.59 124.15C74.17 124.08 75.11 123.96 76.05 123.94C78.91 124.9 82.14 127.11 84.41 128.13C87.32 129.44 90.39 131.02 92.7 133.27C85.56 128.61 75.57 124.92 67.72 129.2C65.32 130.51 63.32 132.54 61.41 134.46C59 136.87 56.6 139.27 54.58 142.02C52.89 144.32 51.87 147.04 50.72 149.64C49.42 152.57 47.72 155.44 46.77 158.51C46.15 160.49 46.59 162.56 47.17 164.49C48.12 167.64 48.82 170.49 48.67 173.82C48.51 177.21 47.25 180.34 46.61 183.64C46.16 185.96 46.64 188.41 47.17 190.67C47.77 193.22 48.64 195.7 49.25 198.24C49.95 201.16 50.63 204.02 52.07 206.68C53.42 209.18 55.86 211.21 57.97 213.04C58.98 213.91 60.01 214.79 61.07 215.64C61.11 215.68 61.15 215.73 61.19 215.78C62.18 216.9 63.11 218.44 64.32 219.55C63.13 219.28 61.93 219.01 60.74 218.71ZM26.96 161.37C27.81 158.87 27.73 155.91 27.63 153.19C28.18 150.5 28.59 147.89 30.03 145.44C31.82 142.39 33.74 139.18 36.13 136.56C38.35 134.13 41.89 132.78 44.69 131.11C47.6 129.37 49.88 126.87 52.15 124.38C54.44 121.87 56.71 119.39 59.64 117.62C62.8 115.71 66.2 116.04 69.68 116.64C72.03 117.04 74.21 117 76.56 116.58C79.27 116.09 82.36 115.4 85.08 116.18C87.8 119.21 90.62 121.95 92.21 125.52C90.77 124.27 88.89 123.42 87.22 122.78C85.95 122.29 84.61 122.1 83.31 121.74C80.85 121.05 78.52 119.93 76.2 118.88C73.89 117.83 71 118.62 68.69 119.23C66.88 119.71 65.28 120.6 63.38 120.78C62.11 120.9 60.96 121.22 59.9 121.87C56.56 122.43 54.22 124.22 52.1 126.77C49.19 130.28 46.28 133.81 43.39 137.35C42.32 138.65 41.7 140.14 41.21 141.68C40 143.75 38.5 145.78 37.07 147.44C34.92 149.94 32.34 151.76 30.56 154.65C29.61 156.19 28.87 157.88 28.07 159.5C27.67 160.3 27.22 161.1 27.03 161.98C27 161.77 26.98 161.57 26.96 161.37ZM126.74 125.52C126.81 125.53 126.88 125.54 126.95 125.55C128.91 126.54 130.93 127.33 132.84 128.44C135.49 129.97 138.94 131.25 140.63 133.91C142.08 136.2 142.94 139.45 143.91 141.99C144.82 144.39 145.61 146.64 146.95 148.84C148.55 151.46 149.86 153.72 150.08 156.85C150.27 159.69 149.18 162.67 148.72 165.45C148.33 167.78 147.9 170.22 147.94 172.58C147.98 175.5 147.33 177.74 145.8 179.93C145.94 179.02 146.09 178.09 146.18 177.13C146.46 174.27 145.52 171.37 145.61 168.49C145.69 165.78 146.19 163.27 145.7 160.56C145.11 157.3 144.57 154 143.82 150.77C143.13 147.85 142.23 144.92 141.41 142.02C140.62 139.19 138.71 136.81 137.45 134.19C136.21 131.61 134.17 130.27 131.88 128.72C130.12 127.54 128.44 126.43 126.62 125.5C126.66 125.51 126.7 125.52 126.74 125.52ZM141.54 207.7C141.47 207.75 141.39 207.8 141.31 207.85C135.58 210.22 129.79 210.88 124.88 215.37C121.77 218.21 119.59 221.69 116.25 224.34C114.72 225.55 113.03 226.51 111.28 227.34C115.05 225.06 118.39 221.51 121.11 218.52C123.58 215.81 125.69 212.85 128.58 210.54C131.24 208.42 134.56 207.6 137.73 206.65C140.51 205.81 143.19 204.64 145.12 202.55C144.78 203.21 144.4 203.88 144.22 204.57C143.6 205.72 142.81 206.79 141.54 207.7ZM87.61 236.95C86.54 237.68 84.98 238.55 84.28 239.74C84.94 236.32 87.29 235.24 90.49 234.05C91.32 233.74 92.22 233.33 93.1 232.81C91.76 234.64 89.48 235.67 87.61 236.95ZM98.66 139.78C98.88 139.76 99.1 139.74 99.32 139.74C95.47 142.03 93.8 147.22 93.86 151.86C93.91 155.95 93.88 160.19 93.16 164.22C92.26 169.27 89.95 173.78 88.15 178.52C86.88 181.88 85.75 185.85 86.31 189.45C86.56 191.06 87.17 192.62 87.66 194.17C88.36 196.38 88.77 198.68 89.3 200.94C90.38 205.55 90.38 210.07 90.62 214.78C90.73 217.03 90.94 219.27 90.99 221.53C91.03 223.2 90.64 224.79 90.85 226.43C90.63 226.38 90.4 226.32 90.18 226.27C86.46 224.69 84.37 220.92 82.18 217.61C79.75 213.92 77.68 210.5 78.22 205.93C78.68 202.06 80.27 198.28 80.91 194.42C81.57 190.38 80.92 186.09 80.39 182.08C79.85 178 80.17 174.74 82.09 171.04C82.91 169.46 83.91 168 84.56 166.34C85.27 164.52 85.54 162.54 85.96 160.64C87.82 152.09 90.59 143.75 98.66 139.78ZM87.48 144.65C84.42 149.52 81.84 154.71 79.19 159.81C78 162.09 75.93 163.75 74.9 166.09C73.97 168.2 73.8 171.11 73.39 173.38C72.87 176.23 71.07 179.23 70.79 182.17C70.77 182.11 70.75 182.05 70.73 181.99C70.32 180.79 69.91 179.55 69.51 178.29C69.98 176.42 70.76 174.51 71.27 172.9C72.91 167.7 72.13 162.02 74.86 157.22C77.51 152.54 82.89 146.08 87.66 143.64C87.92 143.51 88.18 143.38 88.43 143.25C88.1 143.7 87.79 144.17 87.48 144.65ZM95.11 124.34C97.55 123.92 100.31 126.4 102.39 127.07C103.38 127.39 104.55 127.49 105.68 127.39C102.13 129.67 99.17 132.85 97.21 136.98C97.04 137 96.86 137.02 96.69 137.05C96.64 136.99 96.59 136.92 96.53 136.86C96.38 136.64 96.25 136.42 96.14 136.2C96.07 136.03 95.98 135.86 95.9 135.7C94.45 132.23 96.12 128.1 95.11 124.34ZM107.68 126.22C106.58 126.3 105.5 126.53 104.38 126.54C102.31 126.56 100.76 125.46 99 124.57C98.01 124.07 96.25 123.48 94.95 123.78C94.33 121.98 93.17 120.49 91.8 119.14C92.65 119.13 93.52 118.98 94.43 119.04C95.58 119.11 96.75 119.02 97.9 119.01C99.51 119 101.42 120.25 102.8 121.01C104.3 121.84 105.87 123.25 107.66 123.41C108.96 123.53 111.17 123.47 112.48 124.28C110.81 124.78 109.2 125.43 107.68 126.22ZM77.61 150.77C73.62 155.47 70.93 159.84 70.02 166.01C69.7 168.2 68.78 170.47 67.92 172.75C67.13 169.56 66.55 166.32 66.41 163.17C66.4 162.83 65.95 162.82 65.85 163.12C64.28 167.91 64.39 174.07 66.22 178.87C66.11 179.93 66.12 180.98 66.35 182.03C67.57 187.77 63.74 191.71 60.6 195.96C60.67 194.75 60.59 193.54 60.29 192.3C59.8 190.26 59.1 188.4 58.77 186.3C58.43 184.13 58.37 181.92 58.28 179.73C58.1 175.46 58.55 171.9 59.57 167.76C60.41 164.34 60.84 161.09 60.72 157.58C60.59 153.8 63.23 149.9 64.73 146.52C66.56 142.41 69.42 139.36 73.19 136.95C79.95 132.63 89.07 131.52 95.35 136.88C95.41 137.01 95.47 137.15 95.53 137.29C93.84 137.69 92.18 138.35 90.65 138.96C84.78 141.29 81.6 146.08 77.61 150.77ZM60.46 203.39C60.77 201.9 61.29 200.46 61.91 199.2C63.7 195.57 66.09 192.44 67.75 188.81C67.17 191.35 66.34 193.81 64.98 196.07C63.16 199.09 62.12 202.75 62.18 206.33C62.2 207.49 62.42 208.67 62.78 209.85C61.65 207.88 60.83 205.74 60.46 203.39ZM64.98 198.98C66.61 194.87 69.04 191.34 69.26 187.01C70.42 191.68 68.64 196.22 65.7 199.9C64.94 200.84 64.35 201.85 63.95 202.93C64.11 201.66 64.44 200.34 64.98 198.98ZM78.43 133.51C74.71 134.74 71.3 136.83 68.42 139.47C65.23 142.39 63.51 146.3 61.74 150.16C61.03 151.71 60.21 153.19 59.87 154.88C59.54 156.54 59.94 158.31 60.04 159.97C60.33 164.6 58.27 169.07 57.37 173.52C56.55 177.59 56.97 182.27 57.5 186.35C57.75 188.26 58.31 190.01 59 191.8C59.84 193.96 59.61 195.91 59.23 197.95C58.23 199.53 57.44 201.19 57.12 203.02C56.5 206.6 57.07 209.5 58.6 212.22C56.49 210.37 54.54 208.36 53.06 206.08C51.51 203.69 50.88 200.7 50.2 197.96C49.63 195.67 48.89 193.42 48.29 191.14C47.59 188.5 47.32 185.87 47.96 183.19C48.64 180.37 49.72 177.76 50.03 174.86C50.52 170.11 48.95 166.52 47.76 162.07C46.87 158.71 48.82 155.61 50.26 152.7C51.53 150.13 52.58 147.49 53.99 144.99C56.68 140.2 61.55 135.9 65.67 132.31C73.6 125.4 81.8 129.05 89.8 132.86C86.11 131.93 81.99 132.33 78.43 133.51ZM61.53 211.3C61.08 210.6 60.75 209.84 60.53 209.06C61.1 210.42 61.91 211.71 63.02 212.94C64.75 214.85 66.41 217.06 68.28 219.02C65.84 218.1 62.98 213.53 61.53 211.3ZM74.04 220.6C72.39 218.18 70.53 215.93 70.92 213.07C71.43 214.34 71.94 215.56 72.35 216.67C72.94 218.25 73.75 219.64 74.71 220.89C74.5 220.79 74.27 220.69 74.04 220.6ZM70.38 211.7C69.58 213.2 69.46 214.45 70 216.3C69.4 215.41 68.86 214.49 68.41 213.49C67.32 211.07 67.8 208.61 68.65 206.24C69.05 208.06 69.69 209.92 70.38 211.7ZM68.32 204.39C66.96 206.93 66.19 209.5 66.72 212.37C66.65 212.27 66.59 212.16 66.52 212.06C63.13 207.21 65.35 202.75 68.48 198.51C68.74 198.16 68.97 197.77 69.2 197.37C68.88 198.45 68.56 199.56 68.35 200.73C68.15 201.9 68.16 203.13 68.32 204.39ZM112.08 140.53C112.71 140.62 113.32 140.77 113.93 140.94C125.26 146.68 135.67 157.78 133.74 171.28C132.18 182.19 139.31 192.37 134.75 203.08C133.12 203.35 131.5 203.59 129.88 203.84C129.81 203.85 129.74 203.87 129.66 203.88C132.77 200.44 133.5 194.87 132.87 190.52C132.31 186.69 130.43 183.31 130.96 179.34C131.41 175.97 132.55 173.08 131.96 169.62C131.43 166.54 129.61 163.55 128.39 160.69C126.89 157.17 124.29 154.48 122.27 151.3C120.46 148.44 118.15 145.34 115.3 143.45C114.09 142.64 112.82 141.93 111.45 141.42C110.52 141.07 108.97 140.95 107.95 140.42C109.33 140.39 110.71 140.33 112.08 140.53ZM116.26 217.89C114.39 221.38 112.05 223.95 109.12 226.39C108.63 226.63 108.13 226.84 107.62 227.02C107.71 226.95 107.81 226.88 107.89 226.8C110.3 224.69 111.92 222.39 113.16 219.45C114.81 215.55 116.88 212.27 119.9 209.58C121.69 208.99 123.41 208.2 125.2 207.59C125.5 207.49 125.8 207.41 126.1 207.32C124.11 208.39 122.24 209.72 120.47 211.51C118.66 213.33 117.45 215.66 116.26 217.89ZM105.33 141.34C107.25 143.09 108.14 145.84 108.93 148.24C110.22 152.18 110.06 156.05 110.06 160.12C110.06 164.27 110.92 168.41 111.18 172.55C111.42 176.37 112.53 180.03 113.7 183.66C115.03 187.79 116.18 191.46 115.16 195.83C114.19 199.97 111.93 204.06 109.25 207.32C108.06 208.76 106.6 209.93 105.39 211.36C104.22 212.75 103.36 214.4 102.54 216.01C100.55 219.94 99.1 223.28 95.25 225.31C95.93 224.01 96.31 222.53 96.5 221.03C96.75 218.97 96.3 216.8 96.85 214.78C97.37 212.85 98.3 210.96 98.98 209.07C100.55 204.72 101.23 200.39 101.7 195.81C102.14 191.42 103.04 186.93 103.23 182.54C103.39 178.96 102.87 175.07 102.2 171.55C101.33 166.98 99.46 162.67 99.1 157.98C98.7 152.87 100.6 149 102.57 144.5C103.06 143.37 103.66 141.56 103.49 140.08C103.63 140.11 103.76 140.13 103.89 140.16C103.97 140.18 104.04 140.19 104.12 140.2C104.46 140.59 104.9 140.95 105.33 141.34ZM113.51 215.32C111.54 218.63 111.31 221.52 107.93 224.14C106.42 225.31 104.74 226.11 102.99 226.53C109.2 224.14 112.02 215.69 116.05 210.42C116.23 210.38 116.4 210.34 116.6 210.32C117.01 210.27 117.41 210.21 117.81 210.13C116.18 211.5 114.83 213.12 113.51 215.32ZM108.76 219.7C110.98 216.44 111.36 211.56 115.7 210.49C113.25 212.84 111.78 215.12 110.12 218.27C108.49 221.38 106.18 223.85 102.78 225.2C101.95 225.53 101.1 225.65 100.26 225.73C101.35 225.14 102.46 224.54 103.6 224.04C105.59 223.17 107.55 221.47 108.76 219.7ZM101.64 139.78C102.02 139.82 102.41 139.86 102.8 139.93C103.35 142.63 100.4 146.86 99.54 148.8C98.18 151.85 98.04 155.62 98.3 158.89C98.56 162.31 99.69 165.81 100.6 169.09C101.65 172.88 102.21 176.91 102.43 180.85C102.64 184.58 101.61 188.86 101.22 192.58C100.78 196.83 100.51 201.08 99.37 205.21C98.85 207.09 98.06 208.85 97.4 210.68C96.9 212.07 95.8 213.98 95.75 215.48C95.61 219.58 96.04 223.97 93.01 226.88C92.97 226.9 92.93 226.92 92.88 226.93C92.54 226.83 92.19 226.74 91.83 226.65C91.47 224.99 91.88 223.17 91.88 221.48C91.88 219.58 91.67 217.68 91.56 215.78C91.32 211.89 91.69 207.68 90.89 203.87C90.13 200.28 89.34 196.63 88.23 193.13C87.67 191.38 87.13 189.68 86.98 187.83C86.79 185.53 87.74 182.86 88.36 180.66C89.49 176.65 91.58 172.96 92.81 168.97C93.9 165.44 94.42 162 94.58 158.32C94.74 154.71 94.35 150.82 95.08 147.28C95.88 143.46 98.39 141.11 101.64 139.78ZM107.36 140.42C108.27 141.32 110.23 141.47 111.27 141.89C115.01 143.38 117.73 146.11 120.12 149.26C124.55 155.09 128.24 161.25 130.78 168.14C132.06 171.61 131.1 174.94 130.37 178.38C129.82 180.97 130.18 183.37 130.92 185.88C132.79 192.29 133.06 199.09 128.38 204.12C125.67 204.71 123.16 205.7 120.61 206.66C121.29 206.05 121.94 205.39 122.51 204.67C124.42 202.28 124.73 199.16 125.41 196.29C126.17 193.07 126.59 190.05 125.76 186.81C125.34 185.18 124.72 183.59 124.25 181.97C123.57 179.57 123.83 177.08 124.07 174.65C124.75 167.68 122.2 160.85 119.2 154.64C117.57 151.27 115.42 148.13 112.81 145.44C111.29 143.87 109.02 141.52 106.75 140.43C106.95 140.43 107.15 140.43 107.36 140.42ZM105.29 140.35C107.79 141.37 110.37 144.16 112.26 146.02C114.88 148.59 116.82 151.84 118.46 155.09C121.42 160.99 123.78 167.92 123.16 174.55C122.92 177.18 122.75 179.65 123.41 182.22C124.35 185.9 125.82 188.86 125.31 192.78C124.96 195.45 124.29 198.25 123.54 200.83C122.63 203.98 120.36 206.12 117.67 207.67C116.79 207.96 115.9 208.22 114.99 208.43C111.55 209.23 109.43 212.55 108.01 215.52C106.27 219.15 102.91 221.19 99.57 223.15C100.25 222.38 100.86 221.5 101.42 220.48C102.42 218.65 103.18 216.69 104.15 214.84C105.47 212.34 107.35 210.57 109.23 208.54C114.29 203.08 117.45 194.76 115.61 187.44C114.51 183.09 112.95 178.86 112.24 174.42C111.88 172.17 111.89 169.83 111.65 167.55C111.38 165.05 111.01 162.57 110.95 160.06C110.85 155.84 110.99 152.05 109.73 147.97C109.17 146.16 108.38 144.46 107.46 142.81C106.84 141.71 105.89 141.04 104.98 140.31C105.09 140.34 105.19 140.34 105.29 140.35ZM104.16 232.9C104.09 232.88 104.03 232.85 103.96 232.82C104.03 232.83 104.1 232.84 104.17 232.86C104.17 232.87 104.16 232.89 104.16 232.9ZM134.07 206.35C130.55 207.35 127.5 209.43 124.86 211.9C122.24 214.35 120.04 217.1 117.63 219.68C119.36 216.79 120.84 214.06 123.28 211.55C125.74 209.02 129.14 207.29 132.46 205.79C133.45 205.59 134.45 205.4 135.43 205.19C136.74 204.91 138.35 204.56 139.99 204.08C138.16 204.97 136.25 205.73 134.07 206.35ZM138.61 189.9C138.61 186.85 138 183.87 137.29 180.92C136.78 178.81 136.11 176.69 135.84 174.53C135.59 172.56 136.38 170.29 136.46 168.3C136.86 158.61 130.08 149.38 121.66 143.98C117.53 140.5 112.46 138.7 107.07 138.45C104.1 138.32 101.57 136.92 98.57 136.89C98.48 136.89 98.39 136.9 98.3 136.9C99.21 135.35 100.23 133.98 101.34 132.77C104.44 131.32 107.66 130.53 111.14 130.61C115.22 130.7 119.28 132.32 123.11 133.58C125.75 134.44 128.01 135.41 129.74 137.65C130.99 139.29 131.62 141.33 132.59 143.13C133.72 145.22 135.22 147.05 136.24 149.22C137.11 151.08 137.18 153.04 137.1 155.05C136.95 158.68 137.57 161.22 138.99 164.59C140.72 168.71 140.98 173.3 141.29 177.72C141.59 182 140.91 185.62 139.83 189.73C139.34 191.6 139.1 193.47 138.77 195.32C138.75 193.46 138.61 191.6 138.61 189.9ZM132.07 140.26C130.09 136.07 127.6 134.3 123.29 132.8C116.41 130.42 109.47 128.51 102.81 131.32C106.1 128.37 110.06 126.66 114.42 125.85C119.82 126.1 125.29 131.14 128.9 134.25C130.05 135.24 131.02 136.13 131.92 137.38C133.08 138.98 133.19 140.25 133.63 142.08C133.78 142.7 133.92 143.27 134.07 143.81C133.35 142.64 132.65 141.47 132.07 140.26ZM113.45 124C112.96 123.4 112.03 123.2 111.27 123.02C108.88 122.46 106.93 122.55 104.67 121.21C102.92 120.17 100.71 118.45 98.6 118.25C97.2 118.12 95.79 118.26 94.39 118.26C93.29 118.26 92.21 118.49 91.12 118.5C90.16 117.62 89.13 116.8 88.12 115.97C90.97 115.49 93.93 115.13 96.76 115.67C98.61 116.02 100.29 116.24 102.06 116.98C103.63 117.63 104.88 118.81 106.5 119.43C108.94 120.36 111.55 121.01 114.16 121.25C116.39 121.46 118.53 121.43 120.6 122.38C120.93 122.53 121.25 122.72 121.57 122.91C118.81 122.94 116.07 123.3 113.45 124ZM28.01 161.97C28.29 160.5 29.45 158.87 30.11 157.53C31.03 155.66 32.11 153.96 33.42 152.35C35.3 150.03 37.69 148.35 39.34 145.84C39.74 145.23 40.13 144.63 40.51 144.02C40.19 145.21 39.86 146.41 39.41 147.56C37.62 152.1 33.05 154.56 31.26 159.16C30.13 162.06 29.4 164.96 28.97 167.86C28.53 165.89 27.61 164.1 28.01 161.97ZM67.46 120.65C70.83 119.28 74.13 118.96 77.5 120.44C82.83 122.77 88.63 123.43 92.93 127.54C93.14 128.3 93.31 129.11 93.4 129.96C93.5 130.87 93.61 131.78 93.78 132.66C90.61 129.31 85.7 127.37 81.72 125.33C77.97 123.41 76.46 121.45 72.08 121C70.25 120.81 68.3 120.87 66.36 121.04C66.73 120.9 67.1 120.8 67.46 120.65ZM73.27 231.08C75.2 229.75 77.33 229.75 79.45 230C77.37 230.4 75.44 231.43 73.29 232.86C71.02 234.37 68.39 234.38 65.79 234.4C66.38 234.29 66.99 234.19 67.62 234.08C69.62 233.75 71.67 232.18 73.27 231.08ZM83.95 242.63C84.01 242.46 84.06 242.3 84.12 242.12C85.06 239.04 89.08 237.26 91.63 235.75C92.23 235.39 92.81 234.98 93.37 234.51C92.94 234.97 92.5 235.41 92.11 235.83C90.56 237.53 89.29 238.99 87.41 240.39C86.31 241.2 85.3 241.61 84.32 242.59C84.23 242.69 84.22 242.79 84.24 242.89C84.08 243.05 83.91 243.2 83.75 243.36C83.84 243.13 83.91 242.88 83.95 242.63ZM111.45 237.63C109.48 236.45 107.47 236.08 105.43 235.38C107.15 235.59 109.01 235.48 110.44 236.05C113.5 237.26 115.98 239.88 119.04 240.2C116.63 240.39 114.44 239.41 111.45 237.63ZM123.51 238.67C123.48 238.68 123.46 238.7 123.43 238.71C123.46 238.68 123.48 238.64 123.48 238.6C123.48 238.62 123.5 238.64 123.51 238.67ZM123.33 238.77C122.96 238.97 122.6 239.16 122.25 239.31C122.21 239.26 122.16 239.22 122.07 239.23C118.28 239.76 116.04 237.34 113.42 235.57C117.41 237.2 122.42 239.13 123.33 238.77ZM121.3 223.6C120.09 224.6 118.1 225.38 116.29 226.15C118.18 224.58 119.84 222.87 121.04 221.54C124.61 217.59 127.31 213.94 132.44 211.77C133.1 211.49 133.77 211.26 134.43 211.04C134.17 211.16 133.91 211.28 133.65 211.41C127.79 214.38 126.17 219.57 121.3 223.6ZM138.35 200.8C139.93 197.74 139.95 194.18 140.67 190.83C141.14 188.6 141.88 186.44 142.29 184.19C142.69 182.04 142.47 179.83 142.34 177.67C142.04 172.79 141.56 167.98 139.6 163.47C138.6 161.16 137.9 159.04 137.94 156.5C137.97 154.76 138.23 152.92 137.79 151.21C137.34 149.45 136.52 147.84 135.59 146.27C135.32 145.71 135.08 145.13 134.93 144.47C134.54 142.75 134.38 140.99 133.92 139.29C133.03 136.08 129.55 133.68 127.15 131.69C124.74 129.7 120.82 126.55 116.98 125.47C119.6 125.18 122.33 125.18 125.12 125.38C127.3 126.6 129.38 127.84 131.44 129.34C132.51 130.12 133.62 130.77 134.63 131.64C136.09 132.89 136.78 134.78 137.65 136.43C139.14 139.26 140.5 141.76 141.28 144.9C142.01 147.88 142.99 150.76 143.58 153.78C144.14 156.64 144.74 159.56 145.09 162.45C145.43 165.28 144.6 168.19 144.8 171.06C145.01 174.01 145.55 176.59 144.91 179.55C144.77 180.21 144.68 180.86 144.61 181.51C144.57 181.6 144.57 181.69 144.59 181.78C144.53 182.58 144.53 183.37 144.65 184.16C144.53 185.15 144.49 186.16 144.42 186.66C143.72 191.6 141.95 197.13 138.35 200.8ZM150.65 149.08C152.36 153.87 153.31 158.47 152.12 163.51C151.09 167.86 149.46 172.06 148.41 176.42C148.34 176.72 148.25 177 148.14 177.27C149.17 173.96 148.9 170.31 149.48 166.57C150.36 160.98 152.15 156.12 149.26 150.81C147.6 147.75 145.93 145.03 144.74 141.72C143.74 138.96 142.63 136.1 141.3 133.48C140.11 131.13 137.01 129.91 134.82 128.78C132.58 127.63 130.47 126.63 128.21 125.71C140.28 127.68 146.83 138.31 150.65 149.08ZM125.13 123.02C124.51 122.97 123.89 122.94 123.26 122.91C121.6 121.67 119.71 120.72 117.62 120.66C113.17 120.53 108.59 119.93 104.63 117.74C103.33 117.02 102.27 116.08 100.78 115.66C98.99 115.16 97.1 114.89 95.26 114.67C93 114.4 89.88 114.63 87.51 115.46C86.79 114.86 86.09 114.26 85.45 113.63C85.99 113.53 86.51 113.34 87.08 113.14C89.57 112.28 92.56 112.03 95.16 112.32C97.35 112.56 99.46 113.31 101.58 113.88C101.83 113.95 102.08 114.04 102.33 114.14C102.56 114.28 102.79 114.42 103 114.56C106.18 116.65 109.63 118.11 113.34 118.92C117.73 119.88 121.74 120.23 125.13 123.02ZM88.38 110.7C91.34 109.72 95.29 110.74 98.64 112.23C97.58 111.93 96.5 111.68 95.36 111.5C93.59 111.23 91.88 111.36 90.13 111.69C89.03 111.9 87.95 112.2 86.85 112.43C86.12 112.58 85.62 112.98 84.95 113.13C84.67 112.83 84.39 112.53 84.14 112.22C84.06 112.13 83.98 112.04 83.9 111.95C85.44 111.86 86.94 111.17 88.38 110.7ZM76.45 107.99C74.1 108.3 71.47 110.47 69.53 110.75C67.9 110.99 66.21 110.84 64.6 111.2C64.05 111.32 63.5 111.47 62.96 111.64C64.79 110.18 66.59 108.68 68.92 107.85C71.94 106.76 74.36 107 76.45 107.99ZM39.35 120.7C42.32 118.39 46.59 117.42 50.69 116.58C49.66 116.91 48.64 117.29 47.66 117.78C44.73 119.24 42.34 121.55 40.32 124.08C38.51 126.37 35.59 128.65 33.45 131.25C34.57 127.25 35.93 123.36 39.35 120.7ZM28.5 142.43C29.37 140.62 30.95 139.38 31.65 137.43C32.03 136.37 32.35 135.28 32.66 134.17C34.85 130.31 38.87 127.27 41.56 123.87C43.52 121.4 46.09 119.48 48.85 118C50.65 117.04 52.65 116.54 54.56 115.79C55.34 115.61 56.11 115.43 56.83 115.22C58.26 114.81 59.48 114.15 60.62 113.39C61.29 113.22 61.94 112.98 62.63 112.73C64.62 112 66.67 111.92 68.76 111.78C72.12 111.55 74.53 109.04 77.8 108.76C80.16 110.32 82.11 112.77 84.12 115.1C82.94 114.9 81.69 114.92 80.51 114.98C76.83 115.19 73.66 116.32 69.91 115.71C66.96 115.23 64.28 114.87 61.38 115.78C58.24 116.76 55.74 119.24 53.52 121.54C50.54 124.63 47.77 127.86 44.09 130.15C41.12 132.01 37.86 133.33 35.34 135.81C32.8 138.32 30.98 141.92 29.14 144.95C28.4 146.17 27.89 147.45 27.52 148.78C27.46 146.61 27.56 144.38 28.5 142.43ZM30.65 175.11C30.66 175.05 30.66 174.99 30.65 174.93C30.67 172.12 30.96 169.25 31.48 166.23C32.22 161.97 33.65 158.41 37.02 155.56C39.35 153.59 40.87 151.78 42 148.94C43.15 146.05 42.79 142.87 43.98 139.95C45.32 136.63 49.34 133.87 51.55 131.08C54.88 126.9 58.05 124.77 63.51 124.21C66.23 123.93 68.95 123.65 71.68 123.53C66.11 124.5 62.73 128.85 58.55 132.19C54.27 135.62 48.21 136.3 46.13 142C45.06 144.93 45.32 148.37 44.75 151.41C44.07 155.05 42.01 158.07 40.43 161.34C38.26 165.83 37.39 170.47 38.06 175.42C38.48 178.57 39.16 181.68 39.67 184.82C40.19 188.07 40.22 191.32 40.35 194.6C40.59 200.31 42.12 205.19 46.25 209.27C48.53 211.52 51.23 213.43 53.7 215.47C54.47 216.1 55.27 216.75 56.1 217.37C52.8 216.31 49.58 214.94 46.52 213C38.86 208.16 36.83 198.58 33.7 190.71C31.55 185.36 30.63 180.34 30.65 175.11ZM18.13 182.83C20.57 183.85 23.12 184.52 25.54 185.59C28.9 187.08 29.94 190.06 31.85 192.71C32.92 195.92 34.2 199.1 35.57 202.22C35.18 201.69 34.81 201.15 34.47 200.59C32.04 196.64 30.11 192.15 26.15 189.4C21.48 186.15 14.24 182.19 7.69999 182.25C10.87 181.31 13.89 181.05 18.13 182.83ZM24.81 203.54C23.48 201.63 22.72 199.36 21.22 197.56C19.09 195.02 16.73 192.64 14.32 190.36C16.3 191.67 18.22 193.11 20.07 194.8C24.59 198.94 26.69 204.56 31.29 208.61C32.25 209.45 33.41 210.11 34.54 210.79C34.49 210.78 34.44 210.76 34.4 210.75C30.14 209.93 27.24 207.03 24.81 203.54ZM84.33 227.54C84.41 227.57 84.49 227.59 84.56 227.62C81.72 227.37 78.88 227.76 75.99 228.59C73.89 229.19 71.8 229.51 69.69 229.79C70.03 229.56 70.36 229.3 70.7 229.01C73.12 226.91 81.29 226.26 84.33 227.54ZM65.59 231.1C66 231.08 66.38 231.04 66.75 230.98C68.32 230.95 69.91 230.95 71.44 230.8C70.16 231.59 68.98 232.33 67.43 232.97C65.96 233.57 64.05 233.24 62.5 233.63C60.5 234.13 58.98 234.99 57.58 236.24C59.46 233.52 61.43 231.26 65.59 231.1ZM60.23 236.23C60.07 236.25 59.94 236.28 59.8 236.3C63.43 234.91 67.52 235.91 71.32 235.06C71.68 234.98 72.03 234.85 72.38 234.7C72.32 234.75 72.27 234.8 72.21 234.85C67.46 239.05 65.02 235.73 60.23 236.23ZM78.65 231.2C78.47 231.25 78.29 231.3 78.11 231.36C78.29 231.3 78.47 231.25 78.65 231.2ZM84.11 231.99C84.14 232.02 84.17 232.05 84.22 232.06C83.1 233.24 82.5 234.75 81.95 236.36C81.95 236.36 81.95 236.35 81.95 236.34C82.27 234.84 83.09 233.32 84.11 231.99ZM90.59 239.65C91.88 238.59 92.95 237.26 94.12 236.07C93.36 237.54 92.21 238.78 90.59 239.65ZM111.26 264.78C109 262.07 107.67 258.7 106.55 255.4C104.67 249.84 104.94 245.22 101.58 240.18C99.99 237.79 98.63 236.49 98.37 233.69C99.99 236.82 102.24 239.65 104.26 242.52C106.22 245.31 107.03 248.56 108.19 251.68C108.28 252.12 108.38 252.56 108.49 252.99C108.72 255.01 108.98 257.03 109.58 259.03C110.39 261.73 111.59 264.24 113.04 266.62C112.42 266.04 111.81 265.44 111.26 264.78ZM145.49 316.25C143.64 310.86 142.46 305.99 139.24 301.21C136.13 296.6 133.97 291.4 130.34 287.16C128.11 284.56 125.76 282.07 123.43 279.55C122.55 278.6 121.82 277.56 121.13 276.48C123.07 278.33 125.1 280.09 127.05 281.89C128.48 283.21 129.76 284.57 130.97 285.97C132.31 288.54 133.6 291.15 134.95 293.69C137.4 298.29 140.49 301.78 143.25 306.1C147.59 312.89 147.86 321.18 149.5 328.98C149.43 328.9 149.36 328.82 149.28 328.75C149.07 327.5 148.85 326.24 148.56 325.01C147.85 321.96 146.49 319.17 145.49 316.25ZM170.66 375.1C170.71 375.13 170.75 375.15 170.8 375.18C170.83 375.21 170.87 375.24 170.9 375.27C174.32 378.61 177.12 381.74 179.12 386.15C181.13 390.6 182.21 395.27 183.39 399.93C181.48 393.76 179.62 387.58 176.04 381.97C174.46 379.5 172.59 377.28 170.66 375.1ZM196.02 429.57C195.94 429.38 195.86 429.2 195.78 429.01C198.2 432.28 200.88 435.38 203.47 438.5C205.18 440.56 206.9 442.48 208.66 444.34C206.62 442.89 204.59 441.43 202.59 439.92C201.41 439.03 200.43 437.77 199.51 436.46C198.13 434.31 197.03 432.05 196.02 429.57ZM207.33 446.64C205.97 445.66 204.76 443.99 203.63 442.32C204.67 443.27 205.79 444.2 207.06 445.15C209.87 447.26 212.86 449.1 215.7 451.18C216.73 452.1 217.78 452.97 218.82 453.85C219.84 454.95 220.7 456.12 221.48 457.35C217.12 453.5 212.25 450.2 207.33 446.64Z" fill="#0E7003"/>
</svg>
