<svg width="425" height="422" viewBox="0 0 425 422" fill="none" xmlns="http://www.w3.org/2000/svg">
<path d="M423.94 253.14C416.17 246.43 409.37 239.03 402 231.92C398.42 228.47 394.88 226.65 390.79 226.27C404.16 213.6 406.29 199.04 408.65 181.34C411.44 160.35 413.38 140.67 404.23 120.97C396.24 103.79 379.78 90.73 362.19 84.66C358.43 83.36 354.48 82.79 350.45 82.72C351.55 77.63 350.54 72.51 349.46 67.45C347.66 59.02 338.59 51.72 339.77 42.77C339.89 42.51 339.92 42.27 339.91 42.05C339.98 41.66 340.05 41.27 340.16 40.88C340.51 39.68 339.19 38.39 337.99 38.86C328.32 42.68 318.37 44.46 308.47 47.6C304.44 48.88 300.57 51.51 297.83 54.91C295.48 46.7 291.47 39.02 285.39 32.51C269.4 15.39 251.94 2.62001 229.31 0.550006C229.21 0.440006 229.06 0.370004 228.82 0.360004C227.72 0.340004 226.63 0.340003 225.54 0.320003C223.92 0.260003 222.27 0.260001 220.6 0.310001C193.07 0.410001 168.77 4.15 148.84 25.77C134.37 41.45 124.46 57.21 119.35 75.21C112.9 72.89 107.41 72.36 100.07 72.68C95.05 72.91 91.05 72.53 86.12 71.27C84.58 70.88 82.81 71.62 81.77 72.73C80.85 73.72 81.07 75.29 81.24 76.48C81.88 80.99 81.18 85.74 81.5 90.31C81.96 96.71 80.35 103.28 82.59 109.17C79.59 109.03 76.72 109.03 74.1 109.15C54.96 110.04 37.96 120.29 26.68 135.14C-2.79 170.16 -11.67 233.8 25.3 260.54C23.29 263.43 20.66 265.72 18.58 268.6C16.62 271.32 15.36 274.71 13.96 277.74C12.24 281.48 9.02 284.76 7.02 288.41C6.3 289.72 7.01 291.89 8.68 292.05C13 292.48 17.25 291.48 21.54 292.43C26.65 293.57 31.63 296.18 36.56 297.95C39.66 299.07 42.16 299.64 44.61 299.3C43.45 302.84 42.45 306.45 41.56 310.07C35.82 333.53 49.77 353.6 63.19 371.34C76.89 389.46 91.98 405.01 114.91 409.95C136.61 414.63 161.12 410.2 180.91 400.66C188.53 396.99 195.26 392.15 201.16 386.48C208.51 399.9 220.34 409.02 230.67 420.44C231.62 421.5 233.34 420.93 233.97 419.84C236.67 415.13 240.19 411.05 243.09 406.5C246.59 401 250.39 400.44 254.66 396.46C258.82 392.58 262.44 388.05 263.75 382.75C290.17 391.93 321.92 385.45 346.41 373.75C378.45 358.44 379.17 321.01 377.25 290.33C376.9 284.73 376.19 279.42 375.01 274.31C381.88 274.33 390.11 270.33 395.78 268.28C400.8 266.47 405.56 264.75 410.21 262.11C414.5 259.66 419.29 259.08 423.55 256.73C424.81 256.05 425.03 254.08 423.94 253.14ZM398.23 257.4C391.79 256.8 384.42 253.97 378.46 251.72C378.21 251.63 377.97 251.5 377.71 251.4C380.56 251.74 383.53 251.59 386.33 251.9C390.78 252.4 395.17 253.57 399.68 254.03C403.58 254.43 407.71 255.41 411.79 255.96C411.7 256 411.61 256.05 411.52 256.09C407.19 256.93 402.94 257.83 398.23 257.4ZM367.03 345.52C365.65 348.61 363.95 351.42 362 353.97C357.17 351.07 351.94 349.37 347.09 346.29C339.92 341.74 333.25 338.15 325.26 335.22C316.46 331.98 310.77 324.94 304.29 318.56C297.56 311.92 292.33 303.84 287.35 295.82C283 288.81 279.51 281.42 274.17 275.05C268.57 268.36 261.51 263.1 254.95 257.39C243.6 247.51 230.67 238.39 216.34 233.87C216.78 233 217.32 232.15 217.98 231.32C233.82 231.03 247.71 236.51 262.44 244.45C270.04 248.55 278.12 250.95 284.64 256.88C291.16 262.8 296.4 269.68 303.38 275.16C309.09 279.63 315.96 282.59 322.34 285.95C329.88 289.92 336.33 295.36 342.28 301.39C354.26 313.51 367.83 327.89 367.03 345.52ZM342.35 368.62C330.52 370.28 317.54 366.19 306.04 361.81C287.64 354.8 270.33 343 260.81 325.52C256.23 317.11 253.38 307.45 250.54 298.33C247.83 289.63 243.78 281.69 239.63 273.61C235.08 264.75 231.46 255.96 225.32 248C222.74 244.67 219.73 241.74 217.31 238.28C216.94 237.75 216.63 237.2 216.34 236.66C223.91 239.39 230.37 242.62 237.35 247.58C244.97 252.98 252.23 258.55 259.26 264.71C265.79 270.44 271.55 275.57 276.59 282.8C281.81 290.29 285.9 298.58 290.99 306.19C298.58 317.54 309.19 330.79 321.78 336.67C329.37 340.21 336.78 342.46 343.87 347.14C349.21 350.66 355.1 352.63 360.51 355.79C355.7 361.37 349.51 365.59 342.35 368.62ZM248.78 362.98C236.06 352.89 229.33 337.66 224.88 321.82C223.73 309.69 221.12 297.49 220.04 285.66C219.62 281.06 219.4 276.49 219.16 271.95C219.31 271.64 219.42 271.35 219.42 271.11C219.41 267.68 218.99 264.21 218.4 260.76C218.36 260.29 218.32 259.81 218.27 259.34C220.41 265.39 222.78 271.39 225.18 277.46C231.88 294.37 233.15 312.44 239.84 329.35C245.34 343.24 254.98 353.82 265.63 364.02C269.97 368.18 274.35 372.46 279.31 375.9C268.41 374.19 258 370.29 248.78 362.98ZM250.17 392.58C249.47 393.31 248.73 394.04 247.96 394.77C248.93 390.76 248.9 386.05 248.25 383.26C247.6 380.46 246.94 377.02 246 373.55C246.84 374.66 247.64 375.79 248.35 376.99C251.03 381.48 251.9 387.54 250.17 392.58ZM244.86 397.54C244.26 398.05 243.68 398.59 243.11 399.15C245.4 389.6 244.02 378.59 240.62 368.63C240.92 368.93 241.18 369.25 241.49 369.55C242.2 371.55 242.78 373.6 243.44 375.47C245.43 381.11 247.81 390.71 245.19 397.24C245.08 397.34 244.97 397.44 244.86 397.54ZM173.82 398.17C162.9 403.26 151.58 405.84 140.41 406.09C152.28 402.22 162.5 392.35 170.4 383.33C182.55 369.43 186.73 352.65 193.02 335.79C200.01 317.05 205.13 298.33 205.62 278.2C205.81 270.51 205.98 261.97 205.28 253.52C206.56 260.96 206.38 268.59 206.85 276.1C207.35 283.9 207.85 291.64 207.57 299.46C207.29 307.21 205.66 314.95 205.01 322.69C204.3 331.23 203.66 339.74 201.11 347.97C198.75 355.58 195.43 362.65 192.4 369.98C188.09 380.38 182.26 390.55 173.82 398.17ZM89.81 389.8C85.18 379.53 83.07 368.89 84.27 357.47C85.32 347.44 90.64 338.12 95.79 329.67C101.19 320.8 107.76 313.25 116.39 307.41C123.53 302.57 131.5 299.48 138.31 294.06C151.57 283.49 165.08 273.14 176.02 260.07C180.96 254.17 184.69 247.44 189.05 241.13C192.34 236.37 193.23 231.87 193.97 226.93C194.06 226.99 194.15 227.06 194.25 227.12C195.54 244.26 189.02 262.86 182.77 278.15C175.89 295.01 166.28 309.21 154.5 323.04C143.26 336.23 132.11 348.66 119.06 360.09C113.09 365.32 106.89 370.15 101.96 376.43C98.06 381.39 96.78 387.36 94.28 392.93C92.76 391.93 91.27 390.89 89.81 389.8ZM5.71 211.36C9.8 221.07 16.71 228.43 27.83 232.69C43.43 238.64 60.45 242.84 77.18 241.77C86.9 241.14 96.42 239.32 106.18 239.26C115.34 239.2 123.51 237.59 132.24 234.92C141.86 231.98 151.19 228.09 160.81 225.11C164.13 224.08 167.51 223.1 170.81 221.93C146.03 236.21 120.32 251.74 91.94 255.78C76.45 257.99 59.96 255.64 44.75 252.46C29.44 249.25 18.16 240.63 9.63 228.41C7.57 223.03 6.28 217.31 5.71 211.36ZM15.26 159.93C15.51 159.74 15.69 159.47 15.66 159.1C15.66 159.08 15.67 159.07 15.66 159.06C15.99 158.32 16.33 157.59 16.67 156.86C18.75 154.19 23.41 150.92 24.51 150.13C29.86 146.3 38.23 143.81 44.72 143.23C57.54 142.09 70.15 143.31 82.54 146.63C94.66 149.87 107.89 153.97 119.32 159.31C125.85 162.35 130.67 168.55 136.36 173.01C140.39 178.77 144.97 184.27 150 189.55C144.35 186.63 139.14 182.97 133.04 180.8C117.19 175.16 101.75 168.7 85.43 164.52C69.14 160.35 53.74 157.68 36.95 157.95C28.74 158.08 18.35 160.04 12.61 166.49C13.43 164.26 14.31 162.08 15.26 159.93ZM23.05 144.93C23.98 143.63 24.9 142.33 25.84 141.04C40.87 127.53 62.52 123.51 82.57 126.21C93.02 127.62 102.76 133.15 112.37 137.21C116.53 138.97 119.4 141.96 121.95 145.28C124.44 152.23 127.59 158.86 131.36 165.19C125.84 160.66 120.29 156.3 112.93 153.92C97.53 148.95 83 142.65 66.8 140.43C60.32 139.54 53.73 140.97 47.21 140.54C40.5 140.1 33.81 142.86 27.76 145.41C26.11 146.11 23.01 147.85 20.11 150.04C21.05 148.3 22.04 146.6 23.05 144.93ZM100.84 111.96C99.91 110.71 99.41 109.01 98.91 107.67C97.54 103.99 96.14 100.31 94.66 96.65C92.99 92.52 91.42 88.43 90.27 84.13C90.15 83.68 90.05 83.24 89.95 82.8C91.69 84.4 93.44 86.01 94.74 88.05C97.78 92.85 98.23 98.52 101.96 103.06C104.91 106.65 106.49 110.63 108.44 114.59C106.02 113.56 103.46 112.68 100.84 111.96ZM115.37 102.24C114.66 101.12 113.92 100.06 113.24 99.07C111.17 96.1 109.06 93.27 106.65 90.57C104.97 88.68 102.47 86.92 100.38 85.04C102.34 85.84 104.25 86.63 105.95 87.52C109.98 89.62 113.55 92.12 115.69 96.17C115.53 98.16 115.42 100.19 115.37 102.24ZM108.49 97.4C111.35 101.38 113.31 105.5 115.36 109.71C115.37 109.93 115.36 110.14 115.37 110.37C115.44 112.65 115.59 114.9 115.79 117.13C112.69 114.58 112.36 110.66 110.48 107.17C108.41 103.31 105.21 100.33 103.11 96.5C101.15 92.92 100.07 89.13 98.13 85.61C101.61 89.51 105.39 93.1 108.49 97.4ZM116.46 89.07C115.05 87.74 113.52 86.52 111.83 85.47C108.48 83.42 104.45 82.03 100.53 80.51C101.01 80.55 101.5 80.59 101.99 80.65C104.75 80.96 107.43 81.92 110.04 82.82C112.22 83.57 115.18 83.63 117.07 85.17C116.83 86.46 116.64 87.76 116.46 89.07ZM10.94 171.18C11.11 171.17 11.29 171.08 11.42 170.9C19.23 160.61 32.39 160.55 44.17 160.32C59.42 160.02 75.54 164.22 90.2 168.39C102.87 171.99 114.92 177.45 127.34 181.87C134.97 184.58 141.43 187.99 148.44 191.94C151.19 193.49 153.88 194.73 156.53 196.02C156.71 196.19 156.88 196.36 157.05 196.53C161 200.19 166.74 205.12 173.26 209.67C173.39 210.27 173.49 210.87 173.56 211.46C172.06 210.68 170.51 209.99 168.83 209.49C162.62 207.64 155.44 206.14 148.97 205.64C131.79 204.31 115.27 198.98 98.13 198.26C87.59 197.82 77.31 199.28 67.46 194.58C61.15 191.56 54.57 188.5 47.81 186.66C35.55 183.31 21.7 174.12 8.91001 178.03C9.53001 175.72 10.19 173.44 10.94 171.18ZM156.05 29.7C158.5 26.38 161.8 22.16 165.4 18.75C172.58 13.69 180.23 10.19 188.38 7.78C185.29 10.51 182.44 13.5 179.67 16.56C173.17 23.72 168.8 32.63 165.23 41.53C156.96 62.17 157.58 83.96 157.58 105.73C157.58 116.41 157.96 125.82 161.23 136.08C164.87 147.48 168.81 158.72 172.18 170.21C175.19 180.49 178.41 190.61 183.48 200.07C185.31 203.49 187.65 206.7 190.26 209.73C184.17 206.8 178.88 203.28 174.53 197.3C169.24 190.03 165.04 182.11 159.55 174.94C147.43 159.12 140.17 138.96 138.44 119.13C136.64 98.64 136.28 78.5 142.23 58.63C145.32 48.34 149.67 38.35 156.05 29.7ZM203.03 4.59C190.36 14.04 182.26 26.3 178.32 41.94C175.57 52.83 174.81 64.21 174.1 75.37C173.4 86.54 173.06 97.49 174.93 108.57C178.79 131.48 187.7 153.15 192.05 175.93C194.07 186.49 191.95 198.58 195.7 208.66C196.31 210.31 197.21 211.86 198.29 213.32C194.31 209.52 190.55 205.51 187.5 200.87C181.82 192.23 178.84 181.94 175.88 172.14C173 162.63 170.32 153.07 167.15 143.65C163.84 133.85 160.31 124.85 160.11 114.32C159.74 94.07 159.21 73.44 164.14 53.68C168.43 36.46 178.5 15.09 194.84 6.07C197.52 5.49 200.26 5 203.03 4.59ZM211.04 3.59C214.28 11.6 213.92 21.58 214.53 30.15C215.27 40.66 215.86 51.23 216.33 61.75C217.28 82.63 214.91 103.79 214.46 124.69C214.23 135.53 213.55 146.1 210.86 156.63C208.22 166.95 204.53 176.89 202.99 187.47C202.47 191.01 199.78 201.71 200.3 209.83C198.3 206.69 196.95 203.04 196.53 198.28C195.77 189.55 195.44 181.05 193.78 172.42C190.17 153.57 183.37 135.32 179.18 116.59C174.41 95.29 176.07 72.98 179.35 51.56C180.86 41.69 183.34 31.76 188.73 23.28C191.39 19.09 194.99 15.5 198.47 12.01C201.3 9.18001 204.97 7 207.55 3.97C208.71 3.84 209.87 3.7 211.04 3.59ZM250.13 9.35C252.61 10.5 254.76 11.85 256.74 13.3C268.78 25.73 271.24 48.26 273.57 63.84C276.68 84.67 272.11 105.98 267.48 126.25C263.27 144.71 253.14 157.89 243.69 173.83C237.9 183.61 232.61 193.4 226.44 202.62C222.28 206.51 217.89 209.99 213.26 212.85C214.11 211.42 214.82 209.98 215.4 208.77C220.22 198.49 221.83 186.09 224.18 175.08C226.87 162.48 230.48 150.62 234.59 138.43C238.84 125.82 240.34 112.4 242.04 99.27C245.14 75.34 249.68 52.57 242.37 28.83C241 24.38 237.09 9.56001 230.92 3.76001C237.45 4.92001 243.85 6.44 250.13 9.35ZM300.36 70.41C302.34 65.06 309.28 58.37 313.74 55.37C316.49 53.52 319.86 52.3 323.34 51.32C321.68 52.42 320.05 53.56 318.5 54.81C312.76 59.42 308.56 65.85 303.79 71.38C302.5 72.88 301.39 74.7 300.38 76.65C300.44 74.57 300.46 72.49 300.36 70.41ZM327.54 86.66C330.88 82.23 332.52 75.72 333.28 69.42C333.32 70.54 333.37 71.67 333.35 72.8C333.25 77.98 331.14 81.87 329.17 86.16C328.62 86.32 328.08 86.49 327.54 86.66ZM327.56 53.33C327.29 53.8 327.01 54.25 326.72 54.66C322 61.36 317.6 68.32 312.47 74.69C308.18 80.03 304.67 84.16 301.69 90.34C301.66 90.41 301.63 90.48 301.6 90.54C303.35 84.13 304.44 77.3 309.07 71.92C313.8 66.42 317.85 60.86 323.57 56.26C324.9 55.18 326.23 54.24 327.56 53.33ZM299.65 99.71C302.16 93.39 306.23 85.76 310.74 80.84C315.36 75.78 319.08 70.3 322.85 64.61C325.28 60.95 327.87 55.56 330.93 51.61C323.44 66.69 320.15 83.82 306.68 95.15C303.98 96.72 301.54 98.53 299.34 100.54C299.44 100.27 299.53 99.99 299.65 99.71ZM323.42 81.97C327.46 75.92 329.78 68.69 331.99 61.43C330.94 71.58 328.49 80.11 322.01 88.55C320.63 89.05 319.27 89.56 317.94 90.09C320.04 87.22 321.88 84.29 323.42 81.97ZM295.55 102.68C295.58 102.58 295.61 102.48 295.64 102.38C295.76 102.32 295.89 102.29 295.99 102.18C296.29 101.85 296.55 101.5 296.82 101.15C296.14 102.63 295.43 104.05 294.69 105.42C294.58 105.55 294.48 105.68 294.38 105.81C294.76 104.76 295.19 103.74 295.55 102.68ZM286.22 125.48C289.31 120.44 292.11 115.34 296 110.68C302.08 103.38 311.93 99.85 320.6 96.89C330.85 93.38 341.2 90.93 351.32 91.21C346.36 92.17 341.3 94.33 337.03 96.33C330.07 99.6 322.56 102.27 316.18 106.61C310.04 110.78 304.98 117.47 300.08 122.96C288.75 135.68 277.96 148.14 268.03 161.97C263.28 168.6 257.72 173.93 252.14 179.82C251.97 179.99 251.79 180.16 251.63 180.33C265.07 163.01 276.96 144.99 286.22 125.48ZM396.17 119.88C400.03 126.63 402.64 134.04 404.19 141.77C398.82 134.21 388.15 130.16 379.49 127.9C357.91 122.29 340.15 130.57 321.15 140.45C300.69 151.07 285.73 169.47 266.81 182.43C256.53 189.47 245.22 194.03 235.64 201C235.67 200.96 235.71 200.91 235.75 200.87C246.26 191.45 257.38 182.68 267.8 173.14C274.26 167.22 279.23 160.55 286.36 155.26C293.07 150.29 299.85 145.52 306.37 140.28C312.19 135.6 318.01 130.92 323.84 126.25C330.84 120.65 338.94 117.67 347.4 115.04C361.86 110.56 386.16 104.51 396.17 119.88ZM400.91 197.55C397.3 203.03 393.41 207.69 387.22 211.02C378.67 215.63 369.24 217.54 359.64 218.24C342.35 219.51 325.1 216.94 308.37 212.71C293.52 208.96 279.51 210.36 264.57 212.28C254.69 213.55 245.33 214.7 236.16 217.52C249.43 212.31 262.24 205.76 275.99 201.7C295.64 195.91 315.57 199.11 335.71 198.16C352.31 197.38 369.86 193.69 384.28 185.41C392.84 180.49 400.95 173.69 405.99 165.11C405.62 176.13 403.74 187.2 400.91 197.55ZM223.11 394.78C222.76 398.6 223.02 402.94 224.27 406.8C218.93 400.39 220.36 386.36 221.34 379.55C222.01 374.95 223.24 370.34 224.35 365.71C224.56 375.13 224.05 384.55 223.11 394.78ZM230.72 372.63C230.91 369.05 230.97 365.09 230.8 361.06C231.69 363.03 232.56 365.01 233.2 367.11C235 373.01 234.25 379.73 234.18 385.81C234.13 390.66 232.45 395.38 231.71 400.14C231.19 403.52 231.28 407.28 231.56 410.87C225.32 398.86 230.01 385.69 230.72 372.63ZM234.27 398.16C235.09 392.94 236.43 388.32 236.51 382.99C236.55 380.08 236.55 377.07 236.39 374.09C239.85 386.04 240.17 398.04 233.62 410.85C233.74 406.62 233.61 402.37 234.27 398.16ZM405.98 157.68C393.29 190.49 349.95 195.58 318.8 195.67C310.73 195.7 302.68 194.74 294.62 195.14C286.28 195.56 277.79 198.14 269.89 200.64C254.6 205.47 239.04 212.09 224.85 219.68C224.73 219.59 224.64 219.49 224.53 219.39C248.14 200.08 277.61 184.38 307.34 177.97C315.79 176.15 324.11 174.75 332.73 174.03C339.65 173.46 346.69 172.65 353.06 169.72C369.5 162.16 387.45 146.88 405.9 155.67C405.93 156.34 405.96 157 405.98 157.68ZM205.71 226.14C205.7 226.2 205.69 226.27 205.68 226.33C205.62 226.26 205.56 226.19 205.49 226.12C205.58 226.13 205.64 226.13 205.71 226.14ZM405.19 152.19C392.32 146.31 379.54 153.02 367.75 159.68C357.47 165.49 347.3 170 335.5 171.33C326.64 172.33 317.98 173.06 309.28 175.12C293.19 178.93 278.31 185.03 263.29 191.98C249.68 198.27 234.58 206.56 223.82 217.63C223.95 215.74 226.01 213.29 226.94 211.9C237.78 199.89 251.79 194.49 265.76 185.87C281.42 176.22 294.03 162.59 308.34 151.23C315.44 145.59 323.81 141.64 331.95 137.76C342.37 132.79 352.3 128.42 363.99 127.92C379.25 127.27 401.28 135.92 405.12 152.06C405.13 152.11 405.17 152.14 405.19 152.19ZM228.41 220.37C228.38 220.37 228.35 220.37 228.31 220.37C228.43 220.33 228.54 220.3 228.66 220.26C228.58 220.3 228.49 220.33 228.41 220.37ZM224.86 2.73001C225.05 2.76001 225.24 2.79 225.44 2.82C225.89 3.14 226.32 3.50001 226.66 3.94001C226.75 4.06001 226.86 4.18001 226.95 4.30001C236.18 7.89001 242.81 43.09 243.33 47.68C245.68 68.59 240.92 89.56 238.15 110.2C235.56 129.58 228.17 147.04 223.76 165.92C221.61 175.12 219.7 184.38 217.6 193.59C216.53 198.3 214.59 208.6 210.34 214.52C209.64 214.9 208.93 215.29 208.22 215.64C207.87 215.59 207.5 215.68 207.2 215.97C207.16 215.97 207.13 215.97 207.1 215.98C204.39 215.21 203.17 213.17 203.43 209.84C203.47 207.54 203.68 205.25 204.09 202.98C204.8 198.03 205.26 193.05 205.88 188.09C207.09 178.51 210.17 169.26 212.65 159.96C217.32 142.45 215.9 124.63 217 106.73C218.16 87.79 218.63 68.49 217.58 49.54C217.12 41.19 216.92 32.73 216 24.42C215.21 17.32 215.54 10.14 212.88 3.43C216.77 3.1 220.76 2.87001 224.86 2.73001ZM8.52 179.56C17.95 177.34 25.73 181.01 34.59 184.63C41.93 187.62 49.58 188.93 56.89 192.09C62.62 194.55 68.14 197.83 74.2 199.35C81.97 201.3 90.25 200.65 98.2 200.88C114.4 201.34 129.88 207.17 146.12 208.22C153.56 208.7 160.9 210.66 168.19 212.23C169.62 212.54 170.9 213.1 172.12 213.76C161.01 215.75 150.25 214.1 138.5 214.42C122.61 214.86 106.98 218.17 91.09 218.55C75.37 218.93 58.96 216.84 43.45 214.27C26.3 211.43 16.05 199.76 7.06 186.04C7.49 183.88 7.98 181.72 8.52 179.56ZM96.05 394.03C99.51 387.05 101.44 380.1 106.9 373.96C112.79 367.35 120.38 361.87 127.08 356.11C140.59 344.49 152.05 329.94 163.28 316.13C174.42 302.42 181.95 287.22 188.35 270.83C191.13 263.71 193.77 255.63 195.52 247.38C194.77 257.89 192.64 268.35 190 278.59C185.53 295.9 180.79 314.09 172.53 329.99C164.76 344.95 154.72 358.94 143.48 371.47C132.82 383.35 115.49 399.48 97.82 395.14C97.22 394.78 96.65 394.39 96.05 394.03ZM219.75 367.15C221.31 363.4 222.8 359.64 223.62 355.8C223.13 359.87 222.71 363.93 221.82 367.92C220.16 375.3 218.43 381.94 218.32 389.53C218.29 391.88 218.5 397.53 219.74 402.22C213.6 393.2 216.07 376 219.75 367.15ZM233.99 226.41C240.72 226.09 247.44 225.64 254.18 225.35C256 225.6 257.82 225.87 259.62 226.16C266.87 227.32 273.89 229.95 280.92 231.96C288.07 234 295.47 234.7 302.68 236.44C318.25 240.21 332.01 249.77 344.32 259.67C356.2 269.22 363.83 281.2 369.98 294.84C370.74 300.25 371.31 305.7 371.59 311.16C370.52 307.89 369.23 304.7 367.54 301.69C363.66 294.79 356.92 289.15 350.87 284.27C344.44 279.09 337.7 274.42 331.87 268.53C325.78 262.38 321.89 254.45 314.63 249.38C307.92 244.69 299.73 242.69 292.02 240.19C281.7 236.84 271.71 232.91 260.97 231.02C251.86 229.42 242.67 227.69 233.42 226.49C233.6 226.47 233.8 226.44 233.99 226.41ZM350.45 261.05C339.52 250.88 325.41 240.87 311.25 235.99C303.25 233.23 295.16 232.19 286.91 230.55C280.18 229.21 273.69 226.92 267.08 225.08C269.32 225.09 271.56 225.13 273.8 225.22C292.73 226.05 309.99 230.93 327.49 236.06C332.77 237.74 338.07 239.43 343.1 241.81C359.46 249.54 365.45 267.35 368.26 283.83C368.39 284.61 368.52 285.4 368.64 286.19C364.38 276.68 358.33 268.39 350.45 261.05ZM387.03 229.48C389.85 229.52 392.38 230.4 394.69 231.78C391.49 231.87 387.99 232.94 385.32 233.41C383.58 233.71 381.64 234.02 379.63 234.35C382.33 232.82 384.83 231.17 387.03 229.48ZM410.68 250.19C412.62 251.17 414.14 252.65 415.73 253.96C406.1 252.76 396.21 252.05 386.83 249.78C382.24 248.67 377.45 249.47 372.84 248C371.35 247.53 369.98 246.96 368.65 246.33C373.28 246.51 377.98 246.38 382.91 246.25C391.97 246 402.57 246.09 410.68 250.19ZM405.83 242.38C405.68 242.35 405.52 242.31 405.38 242.28C396.74 240.69 387.67 240.13 378.58 239.69C378.7 239.66 378.83 239.63 378.95 239.6C383.04 238.64 386.96 237.51 391.12 236.81C393.35 236.44 397.07 235.08 399.26 236.33C399.69 236.58 400.09 236.56 400.42 236.42C402.34 238.34 404.12 240.43 405.83 242.38ZM355.33 232.13C339.55 234.2 320.69 224.74 305.03 221.75C281.37 217.23 257.88 219.8 234.34 220.29C247.61 216.12 261.45 214.69 275.35 213.21C294.46 211.17 312.2 217.64 330.84 220.28C351.58 223.22 380.91 223.17 397.07 207.75C389.01 222.8 372.35 229.91 355.33 232.13ZM389.56 110.48C381.99 107.05 372.29 106.86 364.62 107.44C356.8 108.03 348.92 111.63 341.53 114.05C333.49 116.68 326.46 120.56 319.96 126C312.17 132.53 304.31 138.99 296.29 145.23C289.03 150.88 281.26 155.6 274.79 162.21C268.15 168.99 261.53 175.41 254.57 181.89C250.52 185.66 246.34 189.24 242.26 192.92C250.14 183.3 260.81 176.09 268.36 165.98C277.32 153.98 286.28 142.51 296.12 131.21C301.16 125.42 306.47 119.76 311.85 114.28C317.57 108.46 323.93 105.49 331.17 102.08C339.16 98.32 347.06 94.62 355.92 93.46C361.74 92.7 367.04 95.72 372.67 96.74C374.03 97.47 375.39 98.25 376.73 99.14C381.72 102.44 385.97 106.27 389.56 110.48ZM339.93 59.88C341.1 67.51 340.54 75.33 341.54 82.92C341.56 83.06 341.63 83.17 341.66 83.31C339.42 83.63 337.18 84.07 334.95 84.6C336.32 81.69 336.96 78.31 337.17 75.25C337.76 66.72 336.08 58.52 337.44 50.39C338.3 53.52 339.44 56.66 339.93 59.88ZM304.51 55.49C307.35 53.26 310.87 52.16 314.39 51.26C312.93 51.91 311.49 52.63 310.1 53.55C307.51 55.26 302.61 59.81 299.76 64.22C299.61 63.08 299.45 61.94 299.24 60.81C300.95 59 302.45 57.11 304.51 55.49ZM290.78 61.88C293.51 73.88 292.96 86.4 291.39 98.48C288.17 123.19 270.99 145.41 257 165.05C251.39 172.91 245.03 181.98 237.87 190.49C241.19 184.7 244.49 178.88 247.78 173.07C252.76 164.28 258.66 156.05 263.33 147.08C268.05 138 269.98 127.82 272.09 117.91C276.83 95.75 278.73 74.27 274.01 51.97C272.12 43.03 269.95 30.71 264.86 21.02C267.86 24.51 270.64 28.29 273.8 32.17C281.73 41.9 287.92 49.35 290.78 61.88ZM149.41 33.68C150.66 32.17 151.92 30.76 153.2 29.4C148.63 35.57 145.35 42.74 142.7 49.87C138.94 59.96 135.94 70.48 135.07 81.27C134.12 93.06 135.56 104.68 135.74 116.46C136.06 136.37 143.78 158.31 155.45 174.32C161.59 182.74 166.81 192.69 173.6 200.76C164.68 193.53 156.9 185.33 151.89 180.02C134.07 161.12 124.83 138.16 122.86 112.47C120.45 80.96 129.47 57.71 149.41 33.68ZM100.16 76.87C106.89 76.57 112.04 78.62 118.05 80.24C117.88 81 117.73 81.77 117.58 82.54C115.55 81.38 112.87 81.27 110.57 80.5C105.19 78.69 99.63 78.74 94.24 77.69C93.85 77.47 93.46 77.25 93.07 77.02C95.4 77.42 97.84 76.98 100.16 76.87ZM86.26 106.11C85.29 102.05 86.58 98.9 86.42 94.91C86.29 91.6 86.4 87.83 86.26 84.17C86.64 86.31 87.01 88.46 87.63 90.53C89.11 95.52 91.33 100.31 93.28 105.13C93.93 106.72 94.47 108.72 95.18 110.65C92.42 110.12 89.65 109.74 86.93 109.48C86.84 108.56 86.67 107.82 86.26 106.11ZM77.28 115.19C94.69 115.09 109.12 121.36 118.67 134.43C119.07 136.04 119.52 137.62 119.98 139.2C118.15 137.52 116.09 136.02 113.62 134.84C103.1 129.8 91.97 124.86 80.32 123.47C69.33 122.15 57.75 124.27 47.03 126.72C40.73 128.16 35.62 130.72 31.11 134.18C33.79 130.96 36.67 127.93 39.94 125.28C49.99 117.11 64.88 115.26 77.28 115.19ZM6.79 187.76C13.01 199.81 21.92 209.83 35.03 214.58C41.75 217.01 49.13 217.57 56.18 218.34C64.81 219.28 73.34 220.61 82.01 221.15C101 222.31 119.66 218.2 138.58 217.39C149.23 216.93 162.76 220.51 173.5 217.16C173.5 217.18 173.49 217.2 173.49 217.22C161.61 221.89 149.31 225.35 137.3 229.82C129 232.91 120.46 235.32 111.6 235.95C102.97 236.56 94.5 236.75 85.87 237.81C77.16 238.89 68.58 239.5 59.83 238.4C52.65 237.5 45.57 234.87 38.62 232.94C30.56 230.71 23.05 228.52 16.59 222.95C11.03 218.16 7.86 212 5.39 205.4C5.28 199.62 5.77 193.7 6.79 187.76ZM14.91 238.77C32.3 256.86 61.67 260.29 86.47 259.26C104.31 258.52 121.29 250.84 137.15 243.27C146.41 238.84 156.86 234.53 166.46 229.23C165.48 230.09 164.54 230.96 163.67 231.87C163.34 232.21 163.17 232.6 163.08 232.97C155.05 239.42 144.03 244 135.62 247.58C111.17 257.98 78.11 269.38 51.59 262.85C34.03 258.53 22.21 249.87 14.91 238.77ZM48.55 289.19C44.24 288.69 40.08 287.58 35.7 286.84C34.24 286.59 32.77 286.49 31.31 286.44C35.64 286.1 39.99 285.85 44.19 285.36C46.29 285.12 48.77 284.8 51.14 284.16C50.21 285.79 49.35 287.48 48.55 289.19ZM43.95 269.51C41.08 270.14 38.35 270.9 36.03 271.65C31.22 273.21 26.75 274.95 22.77 278.1C22.04 278.68 21.34 279.32 20.64 279.97C25.76 274.81 31.13 270.3 37.75 267.35C39.73 268.15 41.79 268.88 43.95 269.51ZM55.95 277.02C53.94 277.75 52.19 278.87 50.04 279.64C46.08 281.07 41.63 281.28 37.48 281.83C31.97 282.57 26.85 283.79 21.64 285.24C25.82 282.18 29.81 278.58 34.86 276.98C42.93 274.42 51.82 274.6 59.9 272.36C60 272.37 60.1 272.37 60.2 272.38C58.68 273.85 57.26 275.39 55.95 277.02ZM29.31 263.21C30.86 264.14 32.48 265.02 34.18 265.83C31.89 267.07 29.73 268.63 27.8 270.17C24.67 272.68 21.64 275.49 18.89 278.52C19.85 276.92 20.83 275.33 21.74 273.65C23.85 269.75 26.79 266.71 29.31 263.21ZM45.41 293.33C42.02 294.37 36.76 291.79 33.36 291.31C30.41 290.89 26.97 289.31 23.96 288.22C28.29 288.79 32.74 288.63 37.11 289.38C40.42 289.94 43.99 291.38 47.43 291.69C47.21 292.22 46.98 292.76 46.77 293.29C46.34 293.2 45.89 293.18 45.41 293.33ZM69.7 272.49C97.11 271.23 126.93 258.09 149.55 246.44C155.57 243.35 163.32 238.84 169.51 233.29C171.36 232.26 173.26 231.3 175.13 230.3C174.09 231.18 173.04 232.06 172.04 232.96C164.96 239.31 156.76 244.76 149.02 250.27C133.61 261.25 115.09 265.24 98.02 272.69C69.62 285.09 52.44 315.74 54.57 346.29C52.03 340.99 50.04 335.52 48.88 329.93C45.08 311.71 54.72 283.88 69.7 272.49ZM56.26 349.66C56.53 349.5 56.75 349.25 56.77 348.83C56.99 339.39 57.21 330.29 59.44 321.05C61.68 311.74 67.11 303.93 72.71 296.37C84.58 280.35 100.91 273.83 119.3 267.69C134.9 262.49 148.11 254.55 161.24 244.83C167.45 240.23 173.15 234.92 179.33 230.35C181.45 228.78 183.61 227.01 185.43 224.99C186.1 224.95 186.76 224.95 187.41 224.99C184.24 231.28 181.01 237.31 176.47 243.14C170.39 250.94 162.23 257.27 154.07 262.73C147.21 267.33 140.59 272.28 133.71 276.83C125.71 282.13 116.05 285.14 107.46 289.4C92.43 296.85 80.88 309.38 73.08 324.09C66.1 337.25 64.59 351.01 66.24 365.21C62.56 360.28 59.14 355.08 56.26 349.66ZM77.08 378.3C74.39 375.32 71.69 372.17 69.08 368.88C68.34 360.67 67.63 352.57 68.73 344.28C69.92 335.25 74.49 326.48 79.19 318.81C90.19 300.91 107.19 292.43 125.66 284.11C132.81 280.89 138.86 276.81 145.11 272.12C151.82 267.08 159.23 263.19 165.74 257.83C176.98 248.57 184.37 237.97 190.58 225.49C190.75 225.53 190.92 225.56 191.08 225.61C190.87 227.43 190.7 229.25 190.43 231.09C189.71 235.94 186.08 239.96 183.45 243.9C177.73 252.46 172.12 260.44 164.8 267.76C150.6 281.98 134.38 293.81 116.93 303.58C101.99 311.95 91.93 327.89 85.19 343.16C79.43 356.24 79.06 372.61 84.9 385.87C82.19 383.53 79.55 381.04 77.08 378.3ZM102.69 397.71C113.99 398.77 125.8 391.8 134.18 384.73C149.19 372.07 160.97 355.01 171.07 338.34C181.59 320.98 186.56 301.48 192.08 282.13C195.82 269 199.39 253.99 199.34 239.58C200.05 242.15 200.68 244.74 201.06 247.42C202.24 255.67 202.15 264.16 202.37 272.47C202.85 291.06 199.44 309.37 193.31 326.86C187.77 342.68 183.41 359.63 174.24 373.78C165.15 387.82 150.32 401.98 133.57 405.95C122.84 405.29 112.38 402.49 102.69 397.71ZM180.6 394.69C185.66 389.4 189.7 383.12 192.6 376.46C199.03 361.7 205.52 347.47 207.08 331.25C208.78 313.58 211.04 296.63 210.07 278.84C209.88 275.47 209.78 272.09 209.66 268.72C210.68 278.82 211.03 288.45 211.59 294.78C213.25 313.39 218.69 330.02 215.59 348.92C212.32 368.9 197.66 384.87 180.6 394.69ZM213.05 372.25C212.34 374.93 211.88 377.68 211.65 380.52C211.38 383.75 211.55 389.15 212.67 394.05C209.86 390.51 207.11 386.95 204.32 383.38C207.53 379.93 210.43 376.2 213.05 372.25ZM255.06 386.16C255 383.55 254.4 380.82 253.39 378.15C254.81 378.93 256.25 379.68 257.71 380.34C256.98 382.46 256.1 384.38 255.06 386.16ZM287.86 376.85C284.72 375.94 281.69 374.61 278.76 372.28C273.41 368.03 268.6 362.92 263.71 358.15C251.75 346.48 244.53 334.12 238.84 318.51C236.3 311.55 235.37 303.22 234.14 295.92C232.81 288.08 229.8 281.18 226.89 273.84C224.08 266.74 221.3 259.58 218.8 252.37C217.58 248.86 216.74 245.25 215.9 241.65C216.36 242.31 216.84 242.97 217.35 243.61C224.96 253.15 230.46 261.85 235.71 272.85C241.11 284.15 246.1 294.96 250.14 306.84C253.68 317.24 257.76 327.18 264.03 336.27C275.15 352.39 297.22 362.16 315.27 367.65C320.9 369.36 327.66 370.95 334.41 371.38C332.71 371.86 330.98 372.31 329.21 372.69C315.8 375.55 301.59 377.66 287.86 376.85ZM369.57 338.21C368.08 327.2 359.74 317.57 352.54 308.84C346.62 301.66 340.23 295.01 332.81 289.37C324.92 283.37 315.51 279.83 307.17 274.54C298.33 268.93 292.27 260.17 284.62 253.22C278.11 247.32 268.64 244.75 261.02 240.64C250.4 234.92 239.56 230.51 228.21 228.98C230.3 229.1 232.39 229.24 234.48 229.42C242.31 230.09 249.9 232.38 257.69 233.38C267.37 234.62 276.85 237.7 285.95 241.11C294.27 244.23 303.47 245.92 311.16 250.47C318.44 254.78 322.96 262.51 328.2 268.87C332.86 274.55 339.07 278.94 344.86 283.38C350.76 287.91 356.31 292.69 361.43 298.1C367.43 304.44 369.4 312.44 371.74 320.44C371.64 324.73 371.3 329.01 370.62 333.25C370.36 334.97 369.99 336.61 369.57 338.21ZM374.08 270.8C374.28 270.05 374.03 269.33 373.51 268.86C371.85 263.59 369.53 258.56 366.38 253.75C366.89 254.26 367.39 254.8 367.84 255.43C371.23 260.08 375.6 264.87 380.9 267.51C377.98 268.25 375.23 269.3 374.13 271C374.12 270.93 374.1 270.87 374.08 270.8ZM388.32 265.83C388.14 265.89 387.89 265.94 387.68 265.99C384.48 264.28 381.32 262.71 378.42 260.39C376.56 258.9 375.08 256.99 373.69 255C374.48 255.41 375.24 255.86 376.06 256.24C384.09 259.88 392 261.87 399.99 261.89C396.19 263.4 392.22 264.61 388.32 265.83Z" fill="#0E7003"/>
</svg>
